<?xml version="1.0" encoding="UTF-8" standalone="no"?>
<!-- Created with Inkscape (http://www.inkscape.org/) -->

<svg
   version="1.1"
   id="svg2"
   width="16"
   height="16"
   viewBox="0 0 16 16"
   xmlns="http://www.w3.org/2000/svg"
   xmlns:svg="http://www.w3.org/2000/svg">
  <defs
     id="defs6" />
  <g
     id="g8">
    <g
       id="g643"
       transform="matrix(0.0574176,0,0,0.0574176,-0.162088,4.0707592)">
      <path
         style="fill:#fefefe;stroke-width:0.8"
         d="m 33.200001,136.91753 c -7.000089,-2.28802 -11.048602,-6.49355 -13.197586,-13.70943 -1.365461,-4.58496 -1.602414,-7.69691 -1.602414,-21.04475 V 86.499218 L 12.4,80.321426 6.4000002,74.143637 V 68.451794 62.759952 L 12.4,56.799996 l 6.000001,-5.959956 0.0061,-16.42002 c 0.0072,-19.46693 1.056047,-24.5632127 6.122916,-29.7521562 l 2.99569,-3.0678639 H 42.56236 57.600002 v 7.9999994 7.9999997 h -6.734571 c -3.704013,0 -7.317328,0.223625 -8.029588,0.496945 -3.149456,1.208559 -3.635842,4.270458 -3.635842,22.888368 v 17.864769 l -4.801761,4.751657 -4.80176,4.751656 4.80176,4.844825 4.801761,4.844824 0.003,17.578478 c 0.0027,16.043009 0.139845,17.802919 1.569741,20.148049 1.562747,2.56301 1.585737,2.57017 8.99701,2.8 l 7.43029,0.23042 0.225388,9.4 0.225389,9.4 -11.425389,-0.0797 c -6.283964,-0.0439 -12.145389,-0.31508 -13.025389,-0.60272 z m 194.800009,-8.91754 v -9.6 h 7.02199 c 11.16546,0 10.57407,1.17438 10.59792,-21.045357 l 0.0199,-18.554639 5.20163,-5.158217 5.20163,-5.158217 -5.22155,-5.261859 -5.22154,-5.261859 V 39.37992 c 0,-22.786026 0.48041,-21.779921 -10.4,-21.779921 h -7.2 V 9.5999993 1.5999999 l 15,0.025281 c 14.71924,0.024808 15.04125,0.061586 17.20388,1.9649638 1.21214,1.0668256 3.10214,3.6290671 4.2,5.6938699 1.96239,3.6907564 1.99612,4.0667784 1.99612,22.2550564 V 50.04004 l 6,5.959956 6,5.959956 v 6.440043 6.440044 l -5.96051,5.920731 -5.96052,5.920736 -0.23948,18.924714 -0.23949,18.92472 -2.40033,3.93452 c -1.9074,3.12655 -3.45252,4.46845 -7.52412,6.53453 -5.0733,2.57438 -5.23691,2.6 -16.59968,2.6 H 228.00001 Z M 68.000002,71.552753 v -39.64724 l 27.800001,0.247242 c 30.680887,0.272864 29.955017,0.157384 35.180437,5.59689 1.41924,1.477388 3.30924,4.804461 4.2,7.393496 1.51608,4.406556 1.61956,6.667331 1.61956,35.382093 V 111.19999 H 126.4 116 v -28.0765 c 0,-27.10232 -0.0574,-28.15712 -1.65447,-30.399998 l -1.65448,-2.323496 H 101.14553 89.600003 v 30.399998 30.399996 h -10.8 -10.800001 z M 152.80001,56.399996 V 1.5999999 h 10.8 10.8 V 29.999998 c 0,16.678787 0.30266,28.399998 0.73333,28.399998 0.40333,0 0.85333,-0.31625 1,-0.702777 0.22919,-0.604006 8.71859,-10.129384 15.06667,-16.905272 1.1,-1.174132 3.36451,-3.632647 5.03224,-5.463367 l 3.03224,-3.328582 h 10.68217 c 11.55323,0 11.65335,0.03935 11.65335,4.580103 0,1.942863 -2.46831,4.822205 -22.24641,25.950976 l -2.74371,2.931081 7.03081,10.268918 c 3.86696,5.647902 9.01762,13.148918 11.44593,16.668918 2.42831,3.519999 5.26424,7.645306 6.30207,9.167366 1.37684,2.01926 1.82266,3.64125 1.64913,6 l -0.23782,3.23263 h -10.8 -10.8 l -2.8,-4.09397 c -1.54,-2.25168 -5.81754,-8.551675 -9.50564,-13.999995 -3.6881,-5.448319 -6.86296,-10.080879 -7.05522,-10.294583 -0.19227,-0.213704 -1.9309,1.406296 -3.86362,3.6 l -3.51405,3.988552 -0.0307,10.599996 -0.0307,10.6 h -10.8 -10.8 z"
         id="path667" />
      <path
         style="fill:#f9f9f9;stroke-width:0.8"
         d="M 32.126459,135.82467 C 21.191895,131.48813 18.473688,124.4699 18.428498,100.45743 L 18.400001,85.314874 12.4,79.149305 6.4000002,72.983734 v -4.583739 -4.583739 l 5.9420378,-6.10813 5.942039,-6.10813 0.305536,-17.199998 c 0.354842,-19.975553 1.145743,-23.612847 6.36583,-29.2759724 2.985408,-3.2387845 3.563855,-3.5240257 7.146446,-3.5240257 3.311023,0 3.898112,0.2314007 3.898112,1.5364356 0,1.0683157 -0.757034,1.7027083 -2.484692,2.0821657 -3.32693,0.7307164 -6.66356,4.6041269 -8.668921,10.0635348 -1.473111,4.010408 -1.646387,6.304774 -1.646387,21.799998 0,11.011908 -0.291304,17.317862 -0.8,17.317862 -0.44,0 -0.8,0.551601 -0.8,1.225779 0,0.674179 -0.635592,1.484179 -1.412426,1.8 -0.776834,0.315822 -3.116834,2.411554 -5.2,4.657185 -5.4109907,5.832988 -5.2160387,7.134271 2.212426,14.767724 l 6,6.165574 v 16.749351 c 0,18.790321 0.713364,22.606201 5.104471,27.304491 4.151464,4.44187 7.502138,5.68434 16.876276,6.2579 l 8.419254,0.51513 v -5.32156 -5.32158 h -6.34792 c -3.491357,0 -7.227178,-0.33429 -8.301826,-0.74287 -3.210823,-1.22075 -3.750255,-4.51158 -3.750255,-22.878551 0,-14.119743 -0.202295,-17.150551 -1.2,-17.978575 -0.66,-0.547752 -1.2,-1.449848 -1.2,-2.00465 0,-0.554807 -0.746717,-1.20401 -1.65937,-1.442674 -0.912654,-0.238664 -1.845937,-1.147368 -2.073964,-2.019342 -0.228025,-0.871974 -1.096975,-1.763853 -1.930997,-1.981956 -1.621208,-0.423955 -3.135669,-3.527051 -3.135669,-6.424912 0,-1.128076 2.029687,-3.78351 5.6,-7.326464 l 5.6,-5.557089 V 37.140832 c 0,-10.536284 0.347331,-18.698428 0.858031,-20.163424 1.096493,-3.145403 3.977365,-4.177409 11.661348,-4.177409 h 5.880622 V 7.1999995 c 0,-5.4399996 0.05714,-5.5999996 2,-5.5999996 1.981818,0 2,0.064 2,7.0399995 0,4.4088886 -0.358788,7.3987876 -0.96,7.9999996 -0.600269,0.600269 -3.581031,0.96 -7.954637,0.96 -9.892126,0 -9.485364,-0.943477 -9.485364,22.001114 v 18.445105 l -5.179802,5.13376 -5.179804,5.13376 5.179804,5.365344 5.179802,5.365344 v 17.899775 c 0,22.212219 -0.320553,21.455789 9.09246,21.455789 9.316575,0 9.419922,0.11775 9.137611,10.41126 l -0.23007,8.38874 -10.4,0.15976 c -8.956333,0.13758 -10.99323,-0.0755 -14.673543,-1.53508 z m 196.406881,1.24198 c -0.29333,-0.29332 -0.53333,-4.24066 -0.53333,-8.77184 0,-9.85044 0.0421,-9.89482 9.38741,-9.89482 3.82756,0 6.66865,-0.37606 7.25259,-0.96 0.69054,-0.69054 0.96,-6.0812 0.96,-19.205381 V 79.98922 l 5.64385,-5.688819 5.64385,-5.688819 -5.64385,-5.82053 -5.64385,-5.820529 V 38.245261 c 0,-13.497427 -0.26802,-18.993282 -0.96,-19.685262 -0.59091,-0.590915 -3.48768,-0.96 -7.53457,-0.96 -3.61602,0 -7.14402,-0.218516 -7.84,-0.485591 -1.02963,-0.395106 -1.26543,-1.885835 -1.26543,-7.9999998 V 1.5999999 h 2.4 2.4 v 5.5179066 5.5179075 l 6.77808,0.282092 c 5.76609,0.239975 7.0501,0.553933 8.6,2.102812 1.77941,1.77824 1.82752,2.266714 2.06191,20.936283 l 0.23999,19.115565 5.96001,5.661424 c 7.76279,7.373888 7.76135,7.942088 -0.04,15.743424 l -6,5.999996 v 17.041911 c 0,10.066409 -0.35121,18.049379 -0.85803,19.503259 -1.0824,3.105 -3.97336,4.17741 -11.26134,4.17741 h -5.48062 v 5.32066 5.32066 l 7.8,-0.48794 c 6.30325,-0.3943 8.65929,-0.91637 12.27802,-2.72065 2.46291,-1.228 4.87296,-2.95273 5.35564,-3.83273 3.79076,-6.91104 3.72256,-6.47449 4.01309,-25.68276 l 0.27957,-18.482756 5.93684,-5.897219 c 7.78813,-7.736151 7.78583,-8.334257 -0.0632,-16.415826 l -5.99996,-6.17779 -0.0196,-16.871821 c -0.0107,-9.279501 -0.38401,-18.452739 -0.82945,-20.384975 -1.19276,-5.173919 -4.50684,-9.350623 -8.95099,-11.2808599 -5.25047,-2.2804459 -5.06196,-4.0059832 0.43764,-4.0059832 3.84464,0 4.50832,0.278224 7.15623,2.9999998 5.72086,5.8804413 6.16877,7.9229233 6.18856,28.2200203 l 0.0176,18.02002 6,5.959956 6,5.959956 v 5.640043 5.640044 l -6,5.959955 -6,5.959952 v 17.692244 17.69225 l -2.45467,4.91223 c -2.69861,5.40038 -4.79007,7.23831 -11.04031,9.70192 -3.4007,1.34043 -5.96797,1.6414 -14.0013,1.6414 -5.41039,0 -10.07706,-0.24 -10.37039,-0.53334 z M 68.485594,109.93456 c -0.744,-1.93883 -0.552791,-75.789993 0.199299,-76.975703 0.525526,-0.828522 6.036894,-0.991896 26.98775,-0.8 23.873857,0.218668 26.588297,0.380121 29.127357,1.73247 5.94615,3.167021 8.96064,7.173959 10.91513,14.50867 1.20606,4.52603 1.57297,59.992143 0.40899,61.826563 -0.48438,0.76338 -3.09628,0.96848 -10.18775,0.8 L 116.4,110.79999 116,81.921818 c -0.31644,-22.845805 -0.62935,-29.154293 -1.49795,-30.199999 -0.93087,-1.120666 -2.90923,-1.321823 -13,-1.321823 H 89.600003 v 29.134569 c 0,16.024012 -0.218512,29.704015 -0.485592,30.399995 -0.406336,1.0589 -2.089808,1.26543 -10.314408,1.26543 -8.224605,0 -9.908074,-0.20653 -10.314409,-1.26543 z m 16.504905,-33.334565 0.209504,-30.599998 14.939977,-0.217431 14.93997,-0.217432 2.26003,2.093717 2.26002,2.093718 0.22883,28.723711 0.22883,28.72371 H 126.02883 132 V 79.630005 c 0,-25.72407 -0.10812,-27.853204 -1.61484,-31.799998 -0.88816,-2.326505 -2.6068,-5.314641 -3.81921,-6.640302 -3.84714,-4.206496 -6.39874,-4.614485 -31.165947,-4.983288 l -22.6,-0.336531 v 35.665053 35.665051 h 5.990493 5.990491 z M 153.64116,109.67688 C 152.73421,107.98224 152.39205,5.1939836 153.2856,2.8654298 c 0.40801,-1.0632789 2.13173,-1.2654299 10.79014,-1.2654299 h 10.30455 l 0.20986,29.1245561 0.20986,29.124556 12.65241,-13.924557 12.65242,-13.924557 h 9.50222 c 8.91244,0 9.57952,0.110358 10.74759,1.778004 0.68494,0.977904 1.24536,2.237908 1.24536,2.800011 0,0.843092 -7.9048,9.738461 -23.42956,26.36556 l -2.37494,2.543578 13.43891,19.456419 c 7.3914,10.701031 13.59168,20.22608 13.77838,21.16677 0.1867,0.9407 -0.0674,2.4707 -0.56482,3.4 -0.84287,1.57493 -1.55384,1.68965 -10.4711,1.68965 h -9.56684 l -2.47394,-3.4 c -1.36066,-1.87 -5.91823,-8.529997 -10.12793,-14.799997 -4.20968,-6.269999 -7.94076,-11.399999 -8.29126,-11.399999 -0.3505,0 -2.00518,1.634664 -3.67709,3.632584 l -3.03981,3.632584 -0.4,10.967415 -0.4,10.967413 -9.75885,0.2243 c -9.00689,0.20701 -9.82367,0.10318 -10.6,-1.34741 z m 15.95885,-12.411455 c 0,-10.575959 0.31612,-12.465431 2.08559,-12.465431 0.61292,0 1.11829,-0.45 1.12303,-1 0.005,-0.55 1.47181,-2.53 3.26015,-4.4 2.5948,-2.713281 3.80838,-3.399999 6.00853,-3.399999 2.2384,0 2.94004,0.413825 3.73009,2.2 0.5352,1.209999 1.36682,2.559999 1.84805,2.999999 1.9622,1.794112 6.74456,9.102616 6.74456,10.307184 0,0.711048 0.33716,1.292815 0.74925,1.292815 0.41209,0 2.48209,2.604808 4.6,5.788464 5.99921,9.018043 5.4314,8.611533 12.02854,8.611533 3.20222,0 5.82221,-0.33237 5.82221,-0.73861 0,-0.40625 -0.82579,-1.75625 -1.83509,-3 -1.0093,-1.24376 -3.64302,-4.961387 -5.85271,-8.261387 -2.20969,-3.299999 -5.61391,-8.276223 -7.56491,-11.058271 -1.95101,-2.782056 -4.16802,-6.022055 -4.92669,-7.200003 -1.6708,-2.594206 -2.8532,-4.309114 -5.2206,-7.57184 -0.99,-1.364402 -1.7942,-3.22079 -1.78712,-4.125308 0.008,-0.969926 3.12287,-4.926393 7.59401,-9.644575 4.16963,-4.4 7.58384,-8.126418 7.58712,-8.28093 0.005,-0.239348 3.04609,-3.56322 9.00599,-9.84375 1.35451,-1.427383 1.19527,-1.475319 -4.90093,-1.475319 h -6.30092 l -10.16989,11.2 c -5.59343,6.159999 -10.49802,11.199999 -10.89907,11.199999 -0.40106,0 -0.72919,0.465045 -0.72919,1.033433 0,0.568389 -1.54363,2.548389 -3.43028,4.4 -2.59293,2.544767 -4.05757,3.366566 -6,3.366566 h -2.56972 V 35.999997 4.7999997 h -6 -6 V 55.999996 107.19999 h 6 6 z"
         id="path665" />
      <path
         style="fill:#f3f3f3;stroke-width:0.8"
         d="m 34.659341,136.4484 c -4.587437,-1.43441 -8.728508,-4.11655 -10.999446,-7.12424 -3.651395,-4.83602 -4.459894,-9.80674 -4.459894,-27.41976 V 85.699218 L 13.2,79.521428 7.2000003,73.343637 V 68.490629 63.637621 L 13,57.801105 l 5.800001,-5.836517 0.4,-18.582294 c 0.3942,-18.312898 0.43218,-18.647825 2.619756,-23.102412 2.828288,-5.7592775 6.524695,-8.6798821 10.985526,-8.6798821 2.697605,0 3.263033,0.2544584 3.047885,1.3716334 -0.145284,0.7543984 -1.403781,1.6984745 -2.79666,2.097947 -3.553518,1.0191353 -6.999445,5.0047377 -8.542825,9.8807367 -1.038473,3.280848 -1.319621,7.638337 -1.34203,20.799998 -0.01968,11.556328 -0.32559,17.164681 -1,18.333165 -0.534409,0.925917 -3.221652,3.754694 -5.971652,6.286171 C 11.639401,64.567852 11.2,65.258509 11.2,68.228726 c 0,2.97101 0.525819,3.796716 6.000001,9.421958 l 6,6.165574 v 16.749352 c 0,18.40447 0.732753,22.59412 4.706043,26.90765 3.764823,4.08721 7.313907,5.31956 16.899415,5.868 l 8.794543,0.50319 v -5.32223 -5.32223 h -5.962358 c -11.851959,0 -12.437643,-1.15026 -12.437643,-24.427141 V 81.599994 L 30.460556,76.86055 c -4.724401,-4.724401 -6.460555,-7.11429 -6.460555,-8.893225 0,-0.515822 2.52,-3.536744 5.6,-6.713161 l 5.6,-5.775304 V 37.713734 c 0,-20.161314 0.467568,-22.483565 4.833324,-24.005476 1.432988,-0.499542 5.071713,-0.908259 8.086055,-0.908259 h 5.480622 V 7.1999995 c 0,-5.4399996 0.05714,-5.5999996 2,-5.5999996 1.972707,0 1.999833,0.090067 1.98775,6.5999995 -0.0067,3.6299996 -0.353381,7.1399996 -0.770319,7.7999996 -0.563299,0.891687 -2.666958,1.266993 -8.18775,1.460749 -5.670925,0.199024 -7.666402,0.566627 -8.429682,1.552903 -0.733813,0.9482 -1,6.208678 -1,19.762361 v 18.470206 l -5.2,5.153778 c -2.86,2.834578 -5.2,5.495355 -5.2,5.912839 0,0.417484 2.34,3.182881 5.2,6.145326 l 5.2,5.386265 v 18.077783 c 0,22.103251 -0.386858,21.277781 9.971854,21.277781 8.195492,0 8.428147,0.26198 8.428147,9.49026 0,8.73422 -0.236951,8.924 -11.057144,8.85622 -4.698571,-0.0294 -10.046154,-0.52357 -11.883517,-1.09807 z m 194.740669,0.33852 c -1.16999,-0.72409 -1.4,-2.08223 -1.4,-8.26668 0,-4.68908 0.3517,-7.75195 0.96,-8.36025 0.58881,-0.58881 3.46824,-0.96 7.44709,-0.96 3.94988,0 7.00519,-0.39112 7.81173,-1 1.15389,-0.87109 1.35407,-3.39499 1.55291,-19.579965 l 0.22827,-18.579975 5.4,-5.440102 c 2.97,-2.992059 5.4,-5.782038 5.4,-6.199953 0,-0.417915 -2.43,-3.207844 -5.4,-6.199841 l -5.4,-5.439995 -0.4,-19.38008 -0.4,-19.38008 -7.83202,-0.404586 c -5.74397,-0.296721 -8.03349,-0.723286 -8.58774,-1.6 -0.41566,-0.657477 -0.76126,-4.165414 -0.76799,-7.7954136 -0.0119,-6.4313914 0.0367,-6.5999995 1.90216,-6.5999995 2.34672,0 2.88559,1.2820874 2.88559,6.8654291 v 4.33457 h 5.23973 c 3.11883,0 6.18961,0.491207 7.58645,1.213542 4.41062,2.280816 4.77382,4.09342 4.77382,23.824407 v 17.917404 l 6,5.740285 c 3.3,3.157158 6,6.298457 6,6.980668 0,0.68221 -2.7,3.993413 -6,7.358229 l -6,6.117844 v 17.049503 c 0,20.007049 -0.40313,21.746579 -5.38567,23.239379 -1.75998,0.5273 -5.2282,0.95873 -7.70715,0.95873 h -4.50718 v 5.32158 5.32156 l 8.40018,-0.51396 c 6.77038,-0.41425 9.14825,-0.90512 12.25579,-2.53002 7.79937,-4.07817 8.94403,-8.05305 8.94403,-31.058557 V 83.559946 l 6,-5.959951 c 5.27316,-5.237966 6,-6.312227 6,-8.867921 0,-2.53138 -0.76761,-3.700891 -5.92746,-9.030906 l -5.92744,-6.122942 -0.27256,-19.409013 -0.27254,-19.409013 -2.65167,-4.130657 c -2.07267,-3.2287114 -3.38279,-4.3742811 -6,-5.2463926 -1.87522,-0.6248634 -3.46213,-1.7025071 -3.60699,-2.4494436 -0.20938,-1.0796073 0.40029,-1.3329788 3.2,-1.3298849 2.80933,0.0031 4.00882,0.5091522 6.38907,2.6954591 1.61173,1.4804004 3.77173,4.26868 4.8,6.196177 1.78275,3.34176 1.88126,4.381066 2.12081,22.375443 l 0.25123,18.870901 5.94877,5.909075 5.94878,5.909075 v 5.01446 5.01446 l -5.8,5.805562 -5.8,5.80556 -0.4,18.399996 c -0.37642,17.31535 -0.51034,18.61222 -2.27168,22 -4.55133,8.75403 -9.79613,11.3553 -23.72832,11.76858 -5.99697,0.1779 -10.12544,-0.0404 -11,-0.58165 z M 69.166565,110.19999 c -0.210772,-0.55 -0.289474,-18.279996 -0.174892,-39.399995 L 69.200002,32.399998 H 95.200003 121.2 l 4.2138,2.334656 c 5.01988,2.781258 8.51976,7.621657 9.7914,13.541668 0.58405,2.719023 0.80216,14.070099 0.64029,33.323672 L 135.6,110.79999 l -8.68438,0.22792 c -5.71741,0.15006 -9.06554,-0.0884 -9.8,-0.69795 C 116.20041,109.57041 116,104.38226 116,81.449442 c 0,-17.739958 -0.3026,-28.520057 -0.82814,-29.502038 -0.76396,-1.42747 -1.78708,-1.547408 -13.2,-1.547408 H 89.600003 v 28.347918 c 0,16.482879 -0.326552,29.206816 -0.7802,30.399996 -0.775368,2.03939 -0.837408,2.05208 -10.025107,2.05208 -6.658209,0 -9.352134,-0.2798 -9.628131,-1 z M 84.800003,77.657138 c 0,-25.790475 0.159672,-29.702532 1.257144,-30.799998 1.04252,-1.042523 3.538792,-1.257143 14.621993,-1.257143 20.45688,0 19.32086,-2.020299 19.32086,34.360269 v 27.239724 h 6 6 V 79.342506 c 0,-30.448143 -0.34743,-33.256608 -4.70604,-38.041038 -4.18685,-4.59589 -5.54927,-4.821418 -31.093957,-5.147121 l -23.4,-0.298358 v 35.672001 35.672 h 6 6 z m 69.794327,32.879882 c -0.79468,-0.50452 -0.96252,-11.957819 -0.8,-54.587746 l 0.20568,-53.9492741 9.8,-0.2246231 c 5.39,-0.1235428 9.87872,-0.1235428 9.97496,0 0.0962,0.1235427 0.36622,13.3477382 0.6,29.3871002 l 0.42504,29.162478 11.93777,-13.162479 c 6.56577,-7.239363 12.48458,-13.612478 13.15291,-14.162478 1.91441,-1.575476 18.03043,-1.364603 19.65217,0.257143 2.61176,2.611762 1.42559,4.523264 -11.13443,17.942855 -6.79497,7.26 -12.36662,13.660471 -12.38146,14.223271 -0.0148,0.562799 5.91086,9.617691 13.16821,20.121983 7.25734,10.504287 13.41692,19.6766 13.68796,20.3829 0.27104,0.70631 -0.0951,2.18142 -0.81361,3.27802 -1.25898,1.92145 -1.61794,1.99337 -9.88796,1.98157 -4.71986,-0.006 -8.98373,-0.27673 -9.47527,-0.6 -0.49153,-0.32326 -4.81153,-6.35924 -9.6,-13.413275 -4.78846,-7.054047 -9.34941,-13.714047 -10.13544,-14.799999 l -1.42913,-1.974472 -3.54013,4 -3.54012,4 -0.0307,9.852591 c -0.0169,5.418925 -0.4034,10.548925 -0.85888,11.399995 -0.74035,1.38336 -1.73693,1.54612 -9.4,1.53516 -4.71452,-0.006 -9.02441,-0.29956 -9.57754,-0.65072 z m 15.00568,-13.309443 c 0,-9.788335 0.0406,-10.014855 2.2,-12.271415 1.21,-1.264456 3.56451,-3.796864 5.23224,-5.627585 3.78341,-4.153162 6.15333,-4.357042 8.46909,-0.728583 0.91266,1.43 2.47822,3.7194 3.47903,5.087552 1.98951,2.719784 2.75829,3.858408 9.3626,13.866791 6.60601,10.010973 6.22796,9.749143 13.68465,9.477493 l 6.36392,-0.23184 -1.79576,-2.74775 c -0.98768,-1.51126 -2.33577,-3.53122 -2.99577,-4.488791 -7.50395,-10.887223 -10.94386,-15.966855 -11.67103,-17.234271 -0.47906,-0.834992 -1.41498,-2.150648 -2.07982,-2.923675 -2.03667,-2.368103 -8.31374,-11.718905 -8.88323,-13.233128 -0.48858,-1.299116 7.33622,-10.581805 23.24201,-27.572378 l 2.434,-2.6 h -6.99886 -6.99886 L 189.1971,50.838752 c -7.39591,8.161315 -14.12445,15.201259 -14.95232,15.644319 -0.82787,0.44306 -2.21161,0.581359 -3.07499,0.307333 -1.52384,-0.483646 -1.56978,-1.398122 -1.56978,-31.244317 V 4.7999997 h -6 -6 V 55.999996 107.19999 h 6 6 z"
         id="path663" />
      <path
         style="fill:#eaeaea;stroke-width:0.8"
         d="m 32.227956,135.12476 c -4.789166,-1.85473 -9.723487,-6.90311 -11.400048,-11.66358 -0.729542,-2.07148 -1.188088,-8.75143 -1.41829,-20.66119 l -0.340186,-17.599996 -5.934716,-6.10813 -5.9347157,-6.10813 v -4.607998 -4.607999 l 5.9351087,-5.935108 5.93511,-5.935109 0.275902,-18.148761 c 0.259528,-17.071568 0.388822,-18.40011 2.178378,-22.383561 2.544527,-5.6639733 7.329987,-9.7651981 11.394393,-9.7651981 3.756323,0 3.485978,1.878274 -0.457677,3.1797974 -3.545348,1.1700701 -6.394574,4.4517893 -7.955171,9.1627127 -1.04054,3.141046 -1.306043,7.339469 -1.306043,20.652592 0,10.989665 -0.313275,17.308276 -0.915115,18.457487 -0.503314,0.961074 -3.203314,3.983073 -6.000001,6.715554 C 11.444499,64.497404 11.2,64.919634 11.2,68.54933 c 0,3.663365 0.227669,4.042159 5.800001,9.649978 l 5.8,5.836942 0.456205,18.18187 c 0.474327,18.90409 1.01434,22.2541 4.124689,25.58783 4.057254,4.34864 9.587046,5.95775 21.019107,6.11635 l 5.6,0.0777 0.236552,-5.4 0.236552,-5.4 h -5.517174 c -7.545251,1e-5 -10.258937,-1.08157 -12.184716,-4.85641 -1.417077,-2.77771 -1.571215,-4.76339 -1.571215,-20.241321 V 80.940762 l -5.2,-5.251439 c -3.373975,-3.407352 -5.2,-5.898294 -5.2,-7.093495 0,-1.205218 1.797749,-3.623823 5.2,-6.995832 l 5.2,-5.153778 0.03842,-18.02311 c 0.03265,-15.312864 0.243174,-18.434837 1.4,-20.761091 C 38.33567,14.249038 41.697921,12.943161 49,12.860861 l 5.400002,-0.06086 V 7.1999995 c 0,-4.5051895 0.240471,-5.5999996 1.230021,-5.5999996 1.034621,0 1.19348,1.1755485 1,7.3999995 l -0.230021,7.3999996 -7.28179,0.4 c -4.457622,0.244864 -7.793045,0.825831 -8.6,1.497956 -1.15251,0.95994 -1.318211,3.354879 -1.318211,19.052591 0,11.604716 -0.314895,18.572632 -0.890377,19.702043 -0.489707,0.961074 -3.079824,3.987839 -5.755816,6.726144 l -4.86544,4.978738 5.755817,5.935998 5.755816,5.935997 v 17.961271 c 0,21.561733 -0.432817,20.609253 9.365038,20.609253 4.541659,0 6.712812,0.32987 7.368094,1.11943 0.599607,0.72248 0.8471,3.77201 0.697956,8.59999 l -0.231087,7.48058 -10,0.17025 c -8.395247,0.14293 -10.669511,-0.089 -14.172046,-1.44548 z m 196.600194,0.12782 c -1.04782,-1.95787 -1.07977,-11.2866 -0.0479,-14.00051 0.75655,-1.98989 0.99523,-2.05208 7.87601,-2.05208 10.23306,0 9.74379,1.04667 9.74379,-20.844173 V 80.437618 l 5.75732,-5.795999 5.75732,-5.796001 -5.75732,-5.937547 -5.75732,-5.937548 V 38.485261 c 0,-22.569894 0.40679,-21.685262 -9.97186,-21.685262 -8.18879,0 -8.60993,-0.45934 -8.26294,-9.0124249 0.2154,-5.3094102 0.38351,-5.808695 2.0348,-6.043215 1.72103,-0.2444254 1.8,-0.00752 1.8,5.3999996 v 5.6556403 l 5,0.0013 c 6.23897,0.0015 10.10344,1.804758 11.99876,5.598757 1.20521,2.412559 1.39893,5.252649 1.4,20.525091 l 0.002,17.725091 5.6,5.184742 c 3.12824,2.896269 5.6,5.85195 5.6,6.696362 0,0.831392 -2.52,4.012311 -5.6,7.068709 l -5.6,5.557088 -0.0609,16.821455 c -0.0678,18.729556 -0.62187,21.699056 -4.4021,23.591286 -1.28537,0.64341 -4.96257,1.31354 -8.17156,1.48918 l -5.83452,0.31936 0.23452,5.31081 0.23452,5.31082 5.6,-0.0641 c 10.27164,-0.11758 17.74579,-2.56289 21.18072,-6.92969 2.56954,-3.26663 3.17918,-8.1629 3.19972,-25.69809 l 0.0192,-16.691912 6,-6.165574 c 5.64831,-5.804176 6,-6.374722 6,-9.733794 0,-3.332819 -0.36822,-3.948318 -5.58151,-9.329626 -3.06983,-3.168772 -5.75927,-6.577222 -5.97652,-7.574335 -0.21725,-0.997113 -0.49557,-9.939778 -0.61849,-19.87259 l -0.22348,-18.059658 -2.20366,-3.328719 c -1.40213,-2.1179818 -3.65723,-4.0652961 -6.2,-5.3538168 -2.19799,-1.1138044 -3.99634,-2.3790343 -3.99634,-2.8116221 0,-0.4325877 1.3752,-0.7865232 3.056,-0.7865232 4.09109,0 8.86742,4.0843943 11.4195,9.7651981 1.79179,3.988423 1.91867,5.302909 2.18079,22.593643 l 0.2783,18.358843 5.73271,5.597844 5.7327,5.597844 v 5.023155 5.023155 l -5.74057,5.820156 -5.74056,5.820156 -0.25944,17.999996 c -0.24557,17.03849 -0.35931,18.19231 -2.12925,21.6 -4.80484,9.25081 -10.51675,12 -24.93205,12 -8.61497,0 -9.62228,-0.15031 -10.36999,-1.54741 z M 70.200002,110.33591 c -1.302184,-0.75845 -1.4,-3.46569 -1.4,-38.74752 0,-36.683589 0.05093,-37.959356 1.547408,-38.760245 0.958492,-0.51297 9.876249,-0.828147 23.431921,-0.828147 30.006889,0 34.181409,1.23208 39.420669,11.63475 l 2.4,4.765249 0.23628,30.27432 c 0.17335,22.212373 -0.0125,30.574083 -0.69796,31.399993 -1.40793,1.69646 -16.16172,1.58799 -17.88117,-0.13146 C 116.16164,108.84734 116,105.0441 116,80.36129 V 52.036881 l -1.89408,-1.241053 c -1.5347,-1.00557 -4.07728,-1.198815 -13.4,-1.018443 l -11.505917,0.222611 -0.203672,29.599998 c -0.183656,26.691926 -0.336224,29.698246 -1.552904,30.599996 -1.646792,1.22055 -15.197854,1.32736 -17.243425,0.13592 z M 84.800003,77.999995 c 0,-28.133332 0.05848,-29.258446 1.6,-30.799998 1.461272,-1.461275 2.657784,-1.598978 13.799997,-1.588207 13.51353,0.01306 15.08279,0.424949 17.97599,4.718168 C 119.98545,53.015013 120,53.252695 120,80.118298 v 27.081692 h 6 6 l -0.005,-28.199996 c -0.002,-16.422872 -0.33985,-29.408658 -0.80802,-31.094102 -1.23059,-4.430203 -4.07495,-8.138675 -7.59774,-9.905895 -2.93478,-1.47225 -5.08971,-1.620964 -26.989437,-1.862576 l -23.8,-0.262576 v 35.662574 35.662571 h 6 6 z m 70.200007,32.335915 c -1.31123,-0.76371 -1.39923,-4.17381 -1.38776,-53.775666 0.006,-29.128135 0.30563,-53.4226062 0.6642,-53.9877153 0.48316,-0.7614793 3.01702,-0.9685833 9.78775,-0.7999999 l 9.13581,0.2274711 0.20985,29.3999981 c 0.11543,16.169999 0.50885,29.399998 0.87429,29.399998 0.36543,0 6.16754,-6.132241 12.89356,-13.627203 6.72603,-7.494961 12.87894,-13.974961 13.67313,-14.399999 0.79419,-0.425038 4.88765,-0.772796 9.09658,-0.772796 6.58592,0 7.8756,0.223018 9.25259,1.6 0.88,0.88 1.6,2.098859 1.6,2.708578 0,0.609717 -5.13,6.661069 -11.4,13.447447 -6.27,6.786378 -12.07164,13.111865 -12.89252,14.056638 -1.4842,1.708214 -1.41785,1.825864 11.92963,21.152549 7.38218,10.689127 13.57614,20.36673 13.76438,21.50577 0.62726,3.79571 -1.37986,4.72901 -10.17,4.72901 -6.33819,0 -8.16266,-0.27023 -9.45209,-1.4 -0.87882,-0.77 -5.47077,-7.16 -10.20434,-14.199997 -4.73357,-7.039999 -9.11226,-13.339999 -9.73042,-13.999999 -0.98717,-1.053984 -1.60583,-0.696184 -5.08429,2.94052 l -3.96035,4.140528 v 10.299471 c 0,6.944037 -0.31276,10.612227 -0.96,11.259477 -1.19268,1.19267 -15.62228,1.27114 -17.64,0.0959 z m 14.73475,-12.999813 0.26525,-9.863887 2.62623,-2.62388 c 1.44443,-1.443136 3.5278,-3.805896 4.62971,-5.250573 3.1665,-4.151488 6.13877,-4.116325 8.57737,0.101473 0.53168,0.919588 2.04669,3.211604 3.36669,5.093356 2.57898,3.676528 4.62743,6.723368 9.48822,14.112711 5.44275,8.274033 5.47527,8.294693 13.05123,8.294693 3.6633,0 6.6592,-0.27 6.65756,-0.6 -0.002,-0.5534 -1.84716,-3.56443 -4.79701,-7.831237 -0.66,-0.954656 -3.54,-5.116456 -6.4,-9.248439 -2.86,-4.131992 -5.74,-8.293688 -6.4,-9.248208 -7.0439,-10.18725 -9.6,-14.134644 -9.6,-14.825271 0,-0.668677 12.23521,-14.508992 23.25421,-26.304869 1.29018,-1.381147 2.34579,-2.653105 2.34579,-2.826573 0,-0.173468 -3.34454,-0.315396 -7.43231,-0.315396 h -7.43231 L 188.1255,51.199996 c -10.42041,11.469336 -14.26941,15.199999 -15.6821,15.199999 -1.02971,0 -2.09073,-0.569443 -2.3578,-1.265429 -0.26708,-0.695987 -0.48559,-14.555986 -0.48559,-30.799998 V 4.7999997 h -6 -6 V 55.999996 107.19999 h 5.93475 5.93476 z"
         id="path661" />
      <path
         style="fill:#e4e4e4;stroke-width:0.8"
         d="M 33.600001,135.43475 C 26.231885,132.89904 21.79317,127.62202 20.07942,119.36062 19.595739,117.02896 19.200001,108.34938 19.200001,100.07267 V 85.024106 L 13.2,78.826226 C 7.3572641,72.790795 7.2000003,72.523344 7.2000003,68.6223 c 0,-3.903915 0.152962,-4.163227 5.9999997,-10.171615 l 6.000001,-6.165569 V 36.325243 c 0,-21.56849 1.594577,-27.4092508 8.968134,-32.8492884 2.925668,-2.1584899 7.031866,-2.54152907 7.031866,-0.6559548 0,0.7068775 -0.978113,1.4156225 -2.325561,1.685112 -3.436517,0.6873035 -6.932582,4.8406587 -8.812774,10.4696512 -1.470644,4.402877 -1.661665,6.897871 -1.661665,21.703634 v 16.72887 l -6,5.961222 C 11.069887,64.664153 10.4,65.663067 10.4,68.315509 c 0,2.622444 0.730166,3.752313 6.000001,9.284486 l 6,6.298687 4.03e-4,16.650658 c 3.62e-4,14.90703 0.174322,17.11141 1.661226,21.05065 1.923023,5.09465 4.525457,8.1105 9.020467,10.45342 2.606962,1.35883 4.820594,1.69036 12.055609,1.80552 l 8.862296,0.14106 v -5.6 -5.6 l -5.2,-0.19673 c -9.384405,-0.35504 -10.344412,-0.70984 -12.04285,-4.45085 -1.340663,-2.95298 -1.524105,-5.37393 -1.539581,-20.318425 L 35.200001,80.867978 30.451374,76.177943 C 23.52371,69.335762 23.489062,68.402322 29.915675,61.745509 l 5.284326,-5.473611 V 38.952137 c 0,-18.200499 0.732389,-22.798744 3.862162,-24.248272 0.735811,-0.340784 4.397839,-0.818567 8.137839,-1.061737 l 6.8,-0.442129 0.4,-5.4121667 c 0.22,-2.9766918 0.76,-5.4966916 1.2,-5.5999997 1.180402,-0.2771479 1.489683,12.0991784 0.337061,13.4880034 -0.659548,0.794707 -2.838512,1.127753 -7.435017,1.136413 -3.576124,0.0067 -7.042045,0.352909 -7.702045,0.76927 -0.993261,0.626598 -1.268912,4.06673 -1.6,19.968057 l -0.4,19.211038 -5.4,5.439768 c -2.97,2.991872 -5.4,5.826615 -5.4,6.299428 0,0.472815 2.43,3.277042 5.4,6.231616 l 5.4,5.371952 0.243019,18.518175 c 0.152285,11.604257 0.562216,18.902777 1.097956,19.548307 0.577096,0.69536 3.110992,1.03013 7.796982,1.03013 4.332701,0 7.302884,0.36084 7.902044,0.96 1.296554,1.29655 1.296554,14.38345 0,15.68 -1.444094,1.4441 -17.728509,1.14737 -22.240001,-0.40524 z m 195.733339,0.8319 c -0.96904,-0.96903 -0.59511,-15.08488 0.42667,-16.10666 0.60063,-0.60063 3.58485,-0.96 7.97185,-0.96 6.11365,0 7.11794,-0.19821 7.84,-1.54741 0.49944,-0.9332 0.82815,-8.58798 0.82815,-19.285259 V 80.629466 l 5.6,-5.775303 c 3.08,-3.176418 5.6,-6.117704 5.6,-6.536192 0,-0.418488 -2.52,-3.261576 -5.6,-6.317975 l -5.6,-5.557089 -0.0122,-18.421454 c -0.007,-10.164539 -0.35117,-18.959322 -0.76838,-19.621454 -0.55646,-0.883146 -2.82401,-1.305619 -8.58774,-1.6 l -7.83164,-0.4 -0.23003,-7.3999996 c -0.21559,-6.9358071 -0.12996,-7.3999995 1.36496,-7.3999995 1.42502,0 1.62002,0.6180228 1.83002,5.7999996 l 0.23505,5.7999995 6.6076,0.429822 c 10.46978,0.681054 10.10666,-0.116548 10.5924,23.266572 l 0.4,19.25578 5.8,5.528698 c 3.19,3.040784 5.8,6.083687 5.8,6.762007 0,0.678319 -1.89,3.100527 -4.2,5.382685 -8.26951,8.169839 -7.8,6.640295 -7.8,25.410478 0,16.858809 -0.56588,20.936579 -3.05591,22.021089 -0.73924,0.32197 -4.22409,0.80084 -7.74409,1.06413 l -6.4,0.47873 -0.23756,5.92438 -0.23756,5.92438 8.91521,-0.51009 c 7.9281,-0.45361 9.37163,-0.77381 13.03756,-2.89198 8.10524,-4.68319 9.32235,-8.84781 9.32235,-31.898439 V 83.714874 l 6,-6.165569 c 8.22075,-8.447601 8.14798,-9.933759 -0.93156,-19.023384 l -5.06844,-5.074073 V 37.235115 c 0,-8.919203 -0.35571,-18.09238 -0.79046,-20.384839 -1.06102,-5.594708 -4.3414,-10.0900392 -8.55813,-11.727799 -4.40489,-1.7108439 -5.17002,-3.5224771 -1.48768,-3.5224771 3.72136,0 8.10682,3.625576 11.61025,9.5985041 0.90825,1.548458 1.27041,6.388647 1.6,21.383698 l 0.42602,19.382202 5.8,5.836609 5.8,5.836608 v 4.875802 4.875802 l -5.8,5.844152 -5.8,5.844153 -0.4,18.86123 c -0.39888,18.8084 -0.40616,18.87171 -2.59943,22.60272 -4.47599,7.61418 -10.68753,10.25851 -24.09725,10.25851 -4.97016,0 -9.27666,-0.24 -9.56999,-0.53334 z M 71.200002,110.61688 c -0.66,-0.25124 -1.464487,-0.85282 -1.787749,-1.33684 -0.886667,-1.32762 -0.723009,-74.265788 0.16981,-75.680042 0.633014,-1.002715 4.017737,-1.240479 20.587748,-1.446216 28.816479,-0.357792 35.158739,0.884239 40.947079,8.018831 4.30079,5.301073 4.46464,6.663265 4.71914,39.233486 l 0.23602,30.206101 -2.0881,0.7939 c -2.66348,1.01265 -12.4565,1.03087 -15.09404,0.0281 l -2.01426,-0.76583 -0.23782,-28.899412 c -0.22661,-27.536406 -0.31107,-28.952942 -1.79073,-30.034182 -1.18051,-0.862638 -4.48982,-1.134759 -13.8,-1.134759 H 88.800003 v 30.019798 30.019795 l -2.05208,0.7802 c -2.1728,0.8261 -13.517732,0.96991 -15.547921,0.19709 z m 14.590377,-33.616885 0.209624,-30.199998 14.261557,-0.218711 14.26156,-0.218709 2.33844,2.503314 2.33844,2.503314 v 27.915393 27.915392 h 6.34452 6.34451 l 0.25549,-28.199996 c 0.2842,-31.368739 0.0159,-33.409984 -5.08979,-38.726637 -3.69909,-3.851932 -6.87545,-4.27336 -32.208983,-4.27336 H 72.000003 v 35.599998 35.599995 h 6.79038 6.79038 z m 69.587631,32.954635 -1.778,-1.24537 V 56.507537 c 0,-40.786981 0.22095,-52.5039027 1.01046,-53.5836215 0.8704,-1.1903435 2.22881,-1.3501509 9.8,-1.1529036 l 8.78954,0.228988 0.20973,29.7999981 c 0.11536,16.389999 0.47536,29.77426 0.8,29.742803 0.32465,-0.03146 6.17027,-6.297241 12.99027,-13.923964 7.38553,-8.259155 13.33793,-14.221032 14.71937,-14.742805 2.49611,-0.942784 12.46099,-1.058105 15.59484,-0.180475 1.05281,0.294839 2.21357,1.345343 2.57947,2.334453 0.55233,1.493107 -0.0273,2.576824 -3.41466,6.384185 -2.24395,2.522191 -4.48472,4.945802 -4.97947,5.385802 -3.07545,2.735088 -16.49955,17.9471 -16.49955,18.697064 0,0.5006 1.69753,3.338551 3.7723,6.306558 17.19411,24.596638 23.47811,34.242961 23.26534,35.713741 -0.37144,2.56742 -3.62249,3.65796 -10.94318,3.67084 -6.57176,0.0115 -6.7553,-0.0414 -9.2,-2.65214 -1.37196,-1.46517 -6.41262,-8.45539 -11.20149,-15.533827 -5.7785,-8.541215 -9.07469,-12.728799 -9.80013,-12.450415 -0.60122,0.230704 -2.53305,2.227952 -4.29298,4.43832 l -3.19986,4.018864 v 10.315295 10.315293 l -2.05208,0.7802 c -3.36633,1.27988 -14.1202,0.97052 -16.16992,-0.46516 z m 14.222,-10.559917 c 0,-4.292904 0.32157,-8.926535 0.7146,-10.296967 0.39304,-1.370424 2.78609,-4.698048 5.31792,-7.394712 5.0287,-5.356133 7.60596,-6.220765 9.27069,-3.110186 0.52773,0.986069 2.61039,4.136066 4.62815,7.000002 2.01775,2.863928 4.02864,5.798224 4.46864,6.520648 1.74624,2.867103 8.85536,13.146162 9.74239,14.086492 0.61208,0.64886 3.35119,1 7.80046,1 7.65127,0 8.25809,-0.54809 5.025,-4.53861 -1.00768,-1.24376 -4.012,-5.501387 -6.67624,-9.461387 -2.66425,-3.959999 -5.98452,-8.819999 -7.37837,-10.799999 -5.67746,-8.064961 -11.31324,-16.613289 -11.31324,-17.159867 0,-0.67509 23.97466,-27.10836 24.94833,-27.506796 0.35842,-0.146667 0.65167,-0.596667 0.65167,-1 0,-0.403334 -3.36212,-0.733334 -7.47139,-0.733334 h -7.47137 l -13.79453,15.199999 c -8.87726,9.781733 -14.34843,15.199999 -15.34842,15.199999 -0.9319,0 -1.8662,-0.821411 -2.33409,-2.05208 -0.45517,-1.197183 -0.7802,-14.209107 -0.7802,-31.233649 V 3.9326969 l -6.2,0.2336514 -6.2,0.2336514 -0.20588,51.3999963 -0.20588,51.399994 h 6.40588 6.40588 z"
         id="path659" />
      <path
         style="fill:#dbdbdb;stroke-width:0.8"
         d="m 33.384832,135.12232 c -5.66093,-2.23359 -7.622995,-3.76127 -9.966302,-7.75982 -3.12639,-5.33478 -4.155985,-12.3407 -4.189125,-28.505067 L 19.200001,84.514874 13.09933,78.245856 6.9986586,71.976837 7.3885934,67.918709 c 0.361872,-3.766074 0.8009229,-4.471877 6.1006706,-9.807233 l 5.710737,-5.749105 9.6e-4,-14.381186 c 9.6e-4,-14.888756 1.056515,-23.48578 3.450216,-28.1008905 1.955199,-3.7697018 7.598418,-8.2802946 10.35949,-8.2802946 2.993521,0 2.530388,1.7147169 -0.757277,2.8037609 -3.227872,1.0692377 -6.645949,5.2676097 -8.385087,10.2992752 -1.177304,3.40617 -1.420473,6.954984 -1.442185,21.047349 l -0.02612,16.950386 -6,6.177791 C 10.777156,64.668022 10.4,65.277773 10.4,68.57883 c 0,3.290311 0.39546,3.937624 6.000001,9.821164 l 6,6.298688 V 101.0241 c 0,21.95944 1.170753,25.41272 10.572385,31.18444 1.688752,1.03674 4.829603,1.54487 11.898579,1.92496 l 9.604177,0.51641 -0.237571,-5.92496 -0.237569,-5.92496 -5.6,-0.20346 c -7.82743,-0.2844 -9.035502,-0.68829 -10.821825,-3.61801 -1.434105,-2.35205 -1.572457,-4.09118 -1.575185,-19.800519 -0.0034,-19.327103 0.413052,-17.788055 -6.751105,-24.952208 -2.448537,-2.448536 -4.451886,-4.913759 -4.451886,-5.478273 0,-0.564514 2.52,-3.625275 5.6,-6.801692 l 5.6,-5.775305 0.003,-18.285262 c 0.004,-24.115676 -0.0912,-23.939086 13.197041,-24.487252 l 4.8,-0.19801 0.221907,-4.3999996 c 0.350567,-6.9510757 1.257692,-7.3569085 1.788174,-0.8 0.699351,8.6441816 0.557825,8.7999996 -7.992865,8.7999996 -10.039781,0 -9.617217,-0.960636 -9.617217,21.863267 v 18.307257 l -5.632214,5.808527 -5.632214,5.808527 5.632214,5.779362 5.632214,5.779359 v 17.748847 c 0,22.022455 -0.306717,21.299615 9.045364,21.317095 3.60505,0.006 7.074363,0.34108 7.709582,0.74298 0.898696,0.5686 1.107261,2.38374 0.940024,8.18106 -0.118207,4.09768 -0.277931,7.49336 -0.354945,7.54595 -0.07702,0.0526 -4.280024,0.28682 -9.340024,0.52051 -7.795929,0.36005 -9.782258,0.19516 -13.01517,-1.08042 z m 196.175578,0.51767 c -0.41822,-0.418 -0.7604,-3.91534 -0.7604,-7.77185 0,-8.46731 0.38487,-8.82669 9.2027,-8.5933 3.84444,0.10175 6.38619,-0.20169 7.17531,-0.85659 1.03052,-0.85526 1.22199,-3.86846 1.22199,-19.230497 V 80.971426 l 5.6,-5.88458 c 3.08,-3.236521 5.6,-6.217837 5.6,-6.625148 0,-0.407312 -2.52,-3.339453 -5.6,-6.51587 l -5.6,-5.775305 V 37.445261 c 0,-13.497427 -0.26802,-18.993281 -0.96,-19.685262 -0.59783,-0.59783 -3.55555,-0.96 -7.84,-0.96 -4.28445,0 -7.24217,-0.362171 -7.84,-0.96 -0.5938,-0.5938 -0.96,-3.515257 -0.96,-7.6586588 0,-5.9481108 0.15686,-6.668727 1.4,-6.4315158 1.15263,0.2199415 1.44153,1.2904487 1.63505,6.0586589 l 0.23504,5.7915157 h 6.04496 c 5.80798,0 6.15157,0.106626 8.76495,2.72 l 2.72,2.72 -0.002,18.679998 -0.002,18.679999 6.00183,5.720537 c 3.30102,3.146296 6.00184,6.044187 6.00184,6.439757 0,0.395571 -2.7,3.481214 -6,6.856986 l -6,6.137766 v 16.322479 c 0,8.977359 -0.22988,17.471859 -0.51084,18.876659 -0.7299,3.64953 -3.48406,5.10742 -10.60454,5.61342 l -6.08509,0.43239 -0.23755,5.92407 -0.23756,5.92407 9.43756,-0.53212 c 7.3257,-0.41305 9.88855,-0.86319 11.45302,-2.0116 1.10851,-0.81371 2.72851,-1.71164 3.6,-1.9954 2.30419,-0.75028 5.12007,-5.55074 6.01067,-10.24687 0.42563,-2.24429 0.77386,-11.14298 0.77386,-19.77487 V 84.392938 l 6,-6.157635 c 5.47573,-5.61959 6,-6.442206 6,-9.414429 0,-2.949275 -0.56655,-3.862608 -6,-9.672611 l -6,-6.415814 V 36.475416 c 0,-8.941368 -0.35366,-18.121878 -0.78591,-20.401133 -0.99407,-5.241684 -4.1882,-9.4628547 -8.58739,-11.3485656 -3.92753,-1.6835371 -4.46769,-3.1257175 -1.1707,-3.1257175 3.17965,0 8.74518,5.0165171 11.04504,9.9555131 1.80149,3.868732 1.88367,4.827782 1.89114,22.069822 l 0.008,18.025337 6,6.217948 6,6.217948 v 4.499273 4.499273 l -6,6.16557 -6,6.165574 -0.008,17.491862 c -0.007,16.72952 -0.0904,17.66621 -1.90203,21.49187 -2.37618,5.01776 -6.24876,8.74125 -10.89314,10.47377 -4.03796,1.5063 -21.90661,2.09553 -23.23661,0.76623 z M 69.62815,108.85258 c -1.136527,-2.12361 -1.136527,-72.381557 0,-74.505175 0.790326,-1.476739 1.913787,-1.547203 24.599997,-1.542946 13.907133,0.0026 25.008393,0.347879 26.751653,0.832024 3.81197,1.05868 9.31285,5.248366 11.25339,8.571024 3.23585,5.540529 3.70845,10.482972 3.73832,39.094535 0.0234,22.414248 -0.17144,27.467978 -1.08831,28.228898 -0.73088,0.60659 -3.97904,0.84776 -9.4,0.69796 L 117.2,109.99999 116.8,81.121818 c -0.31644,-22.845805 -0.62935,-29.154293 -1.49795,-30.199999 -0.93654,-1.127495 -2.96535,-1.321822 -13.8,-1.321822 H 88.800003 v 29.439997 c 0,21.831106 -0.248112,29.688106 -0.96,30.399996 -0.621968,0.62197 -3.85152,0.96 -9.171853,0.96 -7.300054,0 -8.303807,-0.17181 -9.04,-1.54741 z M 85.409995,78.069927 c 0.143432,-20.170333 0.491432,-29.869186 1.097952,-30.599998 1.209552,-1.457415 26.903223,-1.497256 28.692053,-0.04449 3.61244,2.933778 3.58096,2.681101 4,32.096326 l 0.4,28.078225 h 6.4 6.4 l 0.23488,-27.999995 c 0.21117,-25.175102 0.0903,-28.433439 -1.19836,-32.296184 -3.66597,-10.98888 -7.69053,-12.236264 -38.449973,-11.917294 l -20.586544,0.213478 -0.20869,35.199998 c -0.11478,19.359999 -0.03023,35.665237 0.187889,36.233867 0.288259,0.75148 2.093326,0.97 6.60869,0.8 l 6.212111,-0.23387 z m 69.523345,31.796733 c -0.29333,-0.29333 -0.53333,-24.554818 -0.53333,-53.914406 0,-47.9385634 0.12901,-53.4305809 1.26543,-53.8666631 2.37274,-0.9105067 15.96966,-0.5304969 16.97457,0.4744089 0.71148,0.7114857 0.96,8.4948142 0.96,30.0666642 0,17.393128 0.29642,28.999349 0.73656,28.839998 0.40512,-0.146666 6.54775,-6.656666 13.6503,-14.466665 L 200.9006,32.799998 h 8.5897 c 8.83352,0 10.50971,0.53008 10.50971,3.323613 0,1.179101 -5.92384,7.982212 -22.18368,25.476385 -1.43135,1.54 -2.60557,3.292523 -2.60939,3.894496 -0.006,0.865402 18.31531,28.247285 25.88491,38.687058 1.32009,1.82065 1.42964,2.51549 0.66213,4.2 -0.90109,1.97767 -1.09528,2.01844 -9.61283,2.01844 -7.28138,0 -8.89117,-0.22736 -9.91244,-1.4 -0.6706,-0.77 -5.08572,-7.16 -9.81139,-14.199997 -4.72567,-7.039999 -9.11063,-13.339999 -9.74436,-13.999999 -1.01667,-1.058801 -1.61824,-0.7128 -5.1126,2.94052 l -3.96035,4.140528 v 9.994047 c 0,5.496721 -0.21852,10.563491 -0.4856,11.259471 -0.40103,1.04508 -1.97984,1.26543 -9.06666,1.26543 -4.71959,0 -8.82108,-0.24 -9.11441,-0.53333 z m 15.29234,-12.197027 0.22566,-9.930367 3.37434,-3.595696 c 1.85588,-1.97764 4.16797,-4.438973 5.13797,-5.469638 2.45696,-2.610632 3.89903,-2.34947 6.21779,1.126062 3.24682,4.866568 4.72943,6.906664 6.20704,8.541032 0.76628,0.84756 1.61043,2.22536 1.87589,3.061776 0.43044,1.356159 5.26047,8.343399 9.95229,14.397188 1.61884,2.08878 2.04336,2.2 8.39698,2.2 3.68057,0 6.87476,-0.29581 7.09821,-0.65736 0.40929,-0.66225 -1.51743,-4.94703 -2.57407,-5.72437 -0.51552,-0.37928 -8.13517,-11.463282 -12.66153,-18.418266 -1.00225,-1.54 -2.46441,-3.654272 -3.24926,-4.698383 -0.78484,-1.044111 -1.96698,-2.708772 -2.62698,-3.699245 -0.66,-0.990474 -2.38945,-3.469334 -3.84323,-5.508577 l -2.64321,-3.707715 6.33834,-7.069251 c 3.48609,-3.888088 8.45554,-9.31181 11.04322,-12.052716 2.58769,-2.740905 5.02636,-5.668689 5.41928,-6.506185 0.39291,-0.837497 1.40273,-1.741191 2.24403,-2.00821 0.8413,-0.267019 1.3907,-0.904939 1.2209,-1.417602 -0.19766,-0.596715 -2.97094,-1.015181 -7.70731,-1.16297 l -7.39854,-0.230858 -3.21373,3.430858 c -1.76755,1.886972 -4.70908,5.08636 -6.53674,7.109754 -12.499,13.837588 -19.39091,20.748351 -20.48242,20.538437 -1.08683,-0.209015 -1.29017,-4.05489 -1.64059,-31.027959 l -0.4,-30.7893723 h -6.4 -6.4 l -0.20735,50.7999963 c -0.11404,27.939998 -0.0295,51.265234 0.18789,51.833864 0.28731,0.75157 2.09148,0.97001 6.60734,0.8 l 6.21212,-0.23387 z"
         id="path657" />
      <path
         style="fill:#d3d3d3;stroke-width:0.8"
         d="m 33.513472,134.70812 c -5.693016,-2.06139 -8.820987,-4.78951 -11.304837,-9.85975 -1.643624,-3.3551 -1.820311,-5.10625 -2.197966,-21.78414 L 19.600001,84.928466 13.8,78.949496 C 8.0190811,72.990192 8.0000003,72.955959 8.0000003,68.543628 V 64.116734 L 14,58.077667 20.000001,52.0386 l 0.0046,-15.4193 c 0.0054,-18.210797 0.737639,-23.695599 3.741808,-28.0306166 2.604934,-3.7589297 7.090438,-6.9886835 9.705927,-6.9886835 2.551932,0 1.840144,1.7109467 -1.102375,2.6498075 -3.702396,1.1813125 -6.443859,4.298544 -8.330198,9.4720026 -1.590565,4.362274 -1.734109,6.198093 -1.651896,21.126261 0.06092,11.061509 -0.21094,16.911224 -0.840609,18.087772 -0.511856,0.956412 -3.224893,3.93383 -6.028973,6.616485 C 10.588523,64.249523 10.4,64.575115 10.4,68.357498 c 0,3.807875 0.183743,4.116429 6.026912,10.12084 l 6.026911,6.193224 -0.03642,16.664218 c -0.04765,21.80655 0.996551,25.27455 9.18259,30.49725 3.388619,2.16194 5.518056,2.52512 16.400001,2.79704 l 6.8,0.16992 v -6 -6 l -7.2,-0.41324 c -3.96,-0.22728 -7.655455,-0.70189 -8.212121,-1.0547 -2.738716,-1.73575 -3.387876,-6.08198 -3.387876,-22.682353 0,-10.719375 -0.315217,-16.957007 -0.914793,-18.102295 -0.503137,-0.961075 -2.843137,-3.629386 -5.200001,-5.929582 -2.72721,-2.661638 -4.285206,-4.851493 -4.285206,-6.02311 0,-1.203841 1.799569,-3.624509 5.2,-6.994714 l 5.2,-5.153778 V 38.742487 c 0,-18.650883 0.503005,-22.076149 3.484148,-23.725683 0.943719,-0.522182 4.775853,-1.144583 8.515853,-1.383113 l 6.8,-0.433692 0.461921,-5.1999996 0.461921,-5.1999996 0.138079,6.5144083 c 0.162433,7.6634389 0.366839,7.4855909 -8.603361,7.4855909 -9.224159,0 -8.858561,-0.878423 -8.858561,21.284446 v 18.358462 l -5.6,5.557089 c -3.08,3.056399 -5.6,5.936398 -5.6,6.399999 0,0.463601 2.52,3.343601 5.6,6.4 l 5.6,5.557087 v 18.164311 c 0,22.262937 -0.550844,21.233657 11.600001,21.675137 l 5.6,0.20346 0.230199,7.41352 c 0.170887,5.50337 -0.03524,7.49983 -0.8,7.74851 -0.566609,0.18425 -4.542168,0.46489 -8.834575,0.62365 -6.526349,0.24138 -8.603151,-5.8e-4 -12.682154,-1.47755 z m 203.686538,1.33693 -8,-0.44506 -0.2389,-5.99058 c -0.39074,-9.79843 -0.54279,-9.60942 7.73015,-9.60942 10.18864,0 9.70875,1.02588 9.70875,-20.754861 V 81.416258 l 6.08276,-6.250618 c 3.79004,-3.894627 5.85941,-6.61201 5.49018,-7.209426 -0.32592,-0.527346 -2.04216,-2.263227 -3.81387,-3.857515 -1.77171,-1.594287 -4.24229,-4.302717 -5.49018,-6.018733 l -2.26889,-3.120031 V 36.839967 c 0,-13.026642 -0.26985,-18.389814 -0.96,-19.079968 -0.59111,-0.591111 -3.48952,-0.96 -7.54286,-0.96 -8.67168,0 -9.23915,-0.548137 -8.92919,-8.6249852 0.14677,-3.8243934 0.58628,-6.1637782 1.1959,-6.3654273 0.6796,-0.2247987 1.03349,1.4077294 1.2,5.5357963 l 0.23615,5.8546162 6,0.406789 c 11.63425,0.78878 12,1.553017 12,25.074456 v 17.960702 l 6.04577,5.646087 c 7.02605,6.561546 7.06072,5.959608 -0.78852,13.688851 l -5.25725,5.176886 -0.0361,17.223111 c -0.0245,11.667209 -0.34998,17.957799 -1.00914,19.500629 -1.21057,2.83347 -5.57932,4.49366 -11.86919,4.51043 -5.15595,0.0138 -5.48559,0.39908 -5.48559,6.41205 0,6.23447 0.17687,6.4 6.83837,6.4 3.22696,0 6.09553,-0.36946 6.37461,-0.82101 0.27907,-0.45155 1.65032,-0.74784 3.04722,-0.65841 3.00103,0.1921 10.06631,-3.59434 12.51465,-6.7069 2.52131,-3.20533 3.22515,-8.99791 3.22515,-26.54289 V 84.359946 l 6,-5.959952 c 5.74642,-5.70806 6,-6.116671 6,-9.66792 0,-3.526065 -0.29078,-4.008333 -5.92746,-9.830906 l -5.92744,-6.122942 -0.27256,-19.428763 -0.27254,-19.428762 -2.54711,-3.914097 c -1.86814,-2.8707404 -3.45769,-4.2701205 -5.96312,-5.2497007 -3.89339,-1.5222514 -4.97441,-3.1569034 -2.08772,-3.1569034 3.43675,0 8.99699,5.157705 11.31012,10.4913181 2.04153,4.707371 2.08809,5.207755 2.0997,22.561411 l 0.0118,17.747267 5.98813,5.876622 5.98813,5.876621 v 4.415247 c 0,4.413146 -0.003,4.418182 -6,10.580819 l -6,6.165569 -0.008,17.142556 c -0.008,16.69743 -0.0609,17.25682 -2.05295,21.54256 -2.32259,4.99694 -4.52168,7.62276 -7.82121,9.33895 -2.41234,1.25472 -9.44053,3.54521 -10.11803,3.29746 -0.22,-0.0805 -4,-0.34655 -8.4,-0.59135 z M 69.96648,109.39999 c -0.210818,-0.55 -0.28952,-17.919996 -0.174892,-38.599995 l 0.208414,-37.599997 23.200001,-0.228112 c 24.799717,-0.243842 28.024117,0.09783 33.190897,3.517046 4.74976,3.143241 7.1559,7.260065 8.43379,14.42997 1.3765,7.723063 1.66265,55.475678 0.34717,57.933678 -0.73197,1.3677 -1.73542,1.54741 -8.64,1.54741 -5.00922,0 -8.15627,-0.34441 -8.77186,-0.96 -0.71033,-0.71033 -0.96,-8.28952 -0.96,-29.142852 0,-24.554112 -0.16186,-28.344722 -1.25714,-29.439998 -1.03762,-1.037626 -3.48225,-1.257143 -14,-1.257143 H 88.800003 v 28.85259 c 0,18.358942 -0.301192,29.415383 -0.828144,30.399993 -0.738016,1.379 -1.742048,1.54741 -9.225111,1.54741 -5.979805,0 -8.5073,-0.28786 -8.780268,-1 z M 85.409995,78.069927 c 0.143432,-20.170333 0.491432,-29.869186 1.097952,-30.599998 1.384176,-1.667831 26.094153,-1.519531 28.507863,0.171096 3.65937,2.563119 3.76411,3.373167 4.18419,32.358969 l 0.4,27.599996 h 6.4 6.4 l 0.21004,-28.543142 C 132.80985,51.904764 132.7397,50.29885 131.17063,46.105111 127.4652,36.201465 123.29687,35.035689 92.800003,35.373817 l -20.4,0.22618 -0.20869,35.199998 c -0.11478,19.359999 -0.03023,35.665235 0.187889,36.233865 0.288259,0.75148 2.093326,0.97 6.60869,0.8 l 6.212111,-0.23387 z m 69.950015,31.370063 c -1.38788,-1.38788 -1.38788,-105.49211 0,-106.8799902 1.39862,-1.3986226 16.15776,-1.305009 17.33205,0.1099331 0.60638,0.7306372 0.95455,10.4041601 1.09795,30.5044241 l 0.21,29.434491 11.91266,-13.104425 c 16.69492,-18.365112 14.34127,-16.704425 23.67481,-16.704425 6.11355,0 8.1823,0.284064 9.15538,1.257143 1.51847,1.518465 1.57652,2.425225 0.25715,4.016367 -1.39993,1.688282 -10.29462,11.415341 -18.05811,19.74799 -3.59804,3.861826 -6.54142,7.281826 -6.54085,7.6 5.8e-4,0.318173 1.37518,2.558497 3.05468,4.978497 1.6795,2.42 6.42223,9.259999 10.5394,15.199999 4.11717,5.94 8.62181,12.419999 10.01031,14.399999 4.42026,6.303287 4.71065,7.124747 3.13434,8.866547 -1.18512,1.30954 -2.51547,1.53345 -9.11086,1.53345 -5.00381,0 -8.14651,-0.35209 -8.92562,-1 -1.14327,-0.95072 -5.14587,-6.55732 -9.50329,-13.311629 -4.2854,-6.642671 -10.41714,-15.204527 -11.26372,-15.727751 -0.49663,-0.306928 -2.62204,1.156928 -4.81284,3.314784 l -3.92344,3.864456 v 10.470071 c 0,7.076719 -0.31114,10.781209 -0.96,11.430069 -0.61334,0.61334 -3.73334,0.96 -8.64,0.96 -4.90667,0 -8.02667,-0.34666 -8.64,-0.96 z m 15.04,-11.966109 c 0.3752,-9.498431 0.52397,-10.244935 2.4,-12.043079 1.1,-1.054328 3.34774,-3.454408 4.99499,-5.333512 3.32712,-3.795429 5.00568,-3.994938 6.94028,-0.824902 0.6956,1.139814 2.34473,3.617958 3.66473,5.506982 1.32,1.889024 3.3,4.800984 4.4,6.471016 11.15058,16.928984 10.94826,16.749604 18.89224,16.749604 3.66385,0 6.8399,-0.3666 7.12134,-0.82198 0.27941,-0.4521 -0.14934,-1.86575 -0.95278,-3.14146 -1.55235,-2.46481 -11.08985,-16.418724 -15.3354,-22.436556 -6.40295,-9.075808 -10.5254,-15.402476 -10.5254,-16.153159 0,-0.668594 12.23497,-14.508731 23.25115,-26.3016 1.28851,-1.379349 2.14287,-2.831306 1.89858,-3.226573 -0.24428,-0.395265 -3.78163,-0.718664 -7.86076,-0.718664 h -7.4166 l -14.21949,15.642618 c -9.26704,10.194537 -14.67806,15.554416 -15.53617,15.389372 -1.18674,-0.228246 -1.3562,-3.29254 -1.71671,-31.042616 l -0.4,-30.7893723 -6.6,-0.2323538 -6.6,-0.2323539 v 51.499017 c 0,28.324461 0.25381,51.752831 0.56403,52.063051 0.31021,0.31022 3.28021,0.46022 6.6,0.33333 l 6.03597,-0.2307 z"
         id="path655" />
      <path
         style="fill:#cacaca;stroke-width:0.8"
         d="m 36.45181,135.28381 c -0.243441,-0.39388 0.146029,-0.94205 0.865488,-1.21813 1.57431,-0.60412 4.282703,0.14731 4.282703,1.18822 0,0.95461 -4.560321,0.98111 -5.148191,0.0299 z m 193.17634,-0.83123 c -1.15385,-2.15601 -1.05467,-12.30606 0.13186,-13.49259 1.36177,-1.36177 13.6934,-1.32453 13.24397,0.04 -0.20302,0.61638 -2.45362,1.15345 -5.86668,1.4 l -5.53729,0.4 v 6.60078 c 0,6.67492 -0.46527,7.8669 -1.97186,5.05181 z m 14.37186,0.833 c 0,-1.06135 2.41116,-1.78987 4.12432,-1.24613 0.8244,0.26165 1.29244,0.80981 1.04008,1.21814 -0.58772,0.95095 -5.1644,0.97576 -5.1644,0.028 z M 28.2281,132.07325 c -4.352974,-3.15327 -9.527199,-13.67326 -6.725155,-13.67326 0.678704,0 1.864892,2.5301 2.877577,6.13777 0.450374,1.60446 4.014101,5.11684 8.549761,8.4266 1.820867,1.32873 1.825825,1.3653 0.189749,1.4 -0.923983,0.0196 -3.125353,-1.0114 -4.891932,-2.29111 z m 224.97191,0.35154 c 1.32,-1.08199 2.82549,-1.98021 3.34553,-1.99603 0.52003,-0.0158 1.71455,-1.10877 2.65447,-2.42877 1.9261,-2.70497 3.75094,-3.32425 2.40946,-0.81768 -1.28844,2.40749 -4.75861,5.63795 -6.95216,6.47194 -3.38409,1.28663 -3.94725,0.81152 -1.4573,-1.22946 z m 9.6079,-10.8248 c 0.31448,-1.98 0.72542,-11.32861 0.9132,-20.77469 l 0.34143,-17.174682 5.96873,-6.133441 c 8.15106,-8.375985 8.02738,-10.426503 -1.17042,-19.404891 l -4.80226,-4.687708 -0.30717,-17.31229 c -0.16895,-9.521759 -0.51131,-18.650526 -0.76081,-20.286149 -0.69088,-4.529102 -4.89474,-9.8193955 -9.06992,-11.4139106 -4.10999,-1.5696189 -4.78082,-3.264255 -0.99222,-2.5065358 3.28501,0.6570019 8.86091,6.3150812 10.55492,10.7104954 1.07838,2.798038 1.31662,6.592899 1.31662,20.972162 v 17.555973 l 2.6,2.987164 c 1.43,1.64294 4.13,4.436527 6,6.20797 3.26968,3.097356 3.4,3.406127 3.4,8.055815 v 4.835008 l -5.56638,5.711653 c -3.06152,3.141405 -5.75889,6.554597 -5.99416,7.584853 -0.23528,1.030264 -0.5204,9.685975 -0.63362,19.234914 -0.15806,13.33232 -0.45694,17.60268 -1.28778,18.4 -0.90566,0.86912 -0.98878,0.45173 -0.51016,-2.56171 z m -222.061889,-0.0812 c -4.018337,-1.47674 -4.74602,-5.0643 -4.74602,-23.398519 0,-11.570775 -0.291422,-17.008679 -0.969716,-18.094799 -1.454731,-2.329395 0.07691,-3.109886 1.83858,-0.9369 1.408043,1.736796 1.531136,3.352868 1.531136,20.102043 0,15.938055 0.164682,18.350585 1.318211,19.311375 0.80404,0.6697 4.133793,1.25398 8.536707,1.49795 4.763267,0.26395 7.330727,0.74013 7.548457,1.4 0.401514,1.21686 -11.807344,1.31323 -15.057355,0.11885 z m 204.079429,-1.25218 c 0.014,-0.36667 0.554,-1.36548 1.2,-2.21957 0.95162,-1.25816 1.17456,-4.95649 1.17456,-19.485265 V 80.629466 l 5.6,-5.775303 c 3.08,-3.176418 5.6,-6.117704 5.6,-6.536192 0,-0.418488 -2.52,-3.261576 -5.6,-6.317975 l -5.6,-5.557089 V 37.821453 c 0,-22.824866 0.47655,-21.821454 -10.36375,-21.821454 h -7.16375 l -0.48817,-2.602139 c -0.72249,-3.8512239 -0.1266,-10.4259784 0.97788,-10.7893966 0.672,-0.2211152 1.03394,1.3283974 1.2,5.1374642 l 0.23779,5.4540714 5.6,0.450334 c 11.99146,0.964316 12.4,1.804984 12.4,25.516114 v 17.37105 l 5.6,5.406343 c 3.08,2.97349 5.59374,6.002552 5.5861,6.73125 -0.008,0.728698 -2.52764,3.812344 -5.6,6.852547 l -5.5861,5.527645 -0.0384,16.872351 c -0.0324,14.227207 -0.25189,17.302217 -1.4,19.614237 -1.25623,2.52973 -3.39537,4.27687 -3.33614,2.72479 z m -224.229164,-3.137 c -0.327957,-0.32795 -0.596285,-7.74023 -0.596285,-16.47172 V 84.782458 L 14,78.502329 C 8.1982219,72.429676 8.0000003,72.092238 8.0000003,68.288361 8.0000003,64.450839 8.1469067,64.210024 14,58.452892 l 6.000001,-5.901629 0.01225,-16.075633 c 0.0067,-8.841597 0.31593,-16.554669 0.687095,-17.140159 1.195177,-1.885326 1.700655,3.434915 1.700655,17.899694 0,11.705961 -0.215458,14.213723 -1.4,16.294942 -0.77,1.352875 -1.678088,2.462049 -2.017974,2.464831 -0.339886,0.0028 -2.409886,1.88377 -4.6,4.179974 C 10.680123,64.056136 10.4,64.63474 10.4,68.399954 c 0,3.898515 0.181956,4.228872 4.860692,8.825083 7.188681,7.061885 7.151718,6.941797 7.059565,22.935223 -0.07834,13.59624 -0.541189,18.15213 -1.723971,16.96935 z m 50.003716,-7.25944 c -0.780222,-0.31483 -1,-8.72159 -1,-38.251251 0,-33.774195 0.136198,-37.900003 1.26543,-38.33333 0.695987,-0.267075 11.170579,-0.485591 23.276875,-0.485591 25.332563,0 28.253083,0.481656 34.093723,5.622793 6.51514,5.734859 6.52813,5.811764 6.80765,40.302356 0.19684,24.289173 0.0378,30.457033 -0.79896,30.987753 -0.5746,0.36442 -4.169,0.66811 -7.98757,0.67484 -5.25728,0.009 -7.24807,-0.29296 -8.2,-1.24489 -1.09539,-1.09539 -1.25715,-4.89153 -1.25715,-29.502043 0,-25.284412 -0.13851,-28.359981 -1.32151,-29.342855 -1.4194,-1.179279 -21.754887,-2.104004 -25.515071,-1.160259 l -1.963416,0.492787 v 29.899165 c 0,26.526135 -0.14276,29.953945 -1.265432,30.384755 -1.497944,0.57482 -14.690032,0.53865 -16.134569,-0.0442 z M 85.600003,78.457138 c 0,-25.790475 0.159672,-29.702532 1.257144,-30.799998 1.034672,-1.034677 3.450664,-1.257143 13.652593,-1.257143 7.00112,0 13.06772,0.359789 13.94025,0.826748 0.84963,0.454712 2.26597,2.24037 3.1474,3.96813 1.50919,2.958252 1.60261,4.705551 1.60261,29.973247 v 26.831868 h 6.76232 6.76231 l 0.23769,-28.999996 c 0.13072,-15.949998 0.0146,-29.359997 -0.25806,-29.799997 -0.27266,-0.44 -0.91755,-2.06 -1.4331,-3.6 -0.51554,-1.54 -2.09489,-4.108688 -3.50968,-5.708195 -2.2768,-2.574092 -3.23265,-3.010649 -8.32014,-3.8 -3.1613,-0.490493 -15.12886,-0.891804 -26.594577,-0.891804 h -20.84676 v 36.399997 36.399995 h 6.8 6.8 z m 69.760007,30.982852 c -0.72689,-0.72689 -0.96,-13.532125 -0.96,-52.734564 0,-28.476011 0.21851,-52.3440098 0.48559,-53.0399963 0.40122,-1.0455819 1.98337,-1.2654299 9.10669,-1.2654299 8.26415,0 8.64108,0.07453 9.10348,1.7999999 0.26532,0.9899999 0.48731,14.5199993 0.49332,30.0666643 0.006,15.757687 0.31983,28.148656 0.70897,27.999998 0.38393,-0.146666 6.32888,-6.466649 13.211,-14.044405 6.88212,-7.577757 13.20433,-14.147756 14.04936,-14.599999 0.84502,-0.452244 4.74428,-0.82226 8.665,-0.82226 6.11261,0 7.33498,0.228037 8.57659,1.6 1.71753,1.897847 3.18877,-0.104862 -13,17.696154 -6.27,6.894433 -11.4001,12.843248 -11.40021,13.219588 -1.9e-4,0.620649 8.3957,13.158542 22.05443,32.934709 2.83018,4.097751 5.14578,8.135091 5.14578,8.971851 0,2.48268 -2.71009,3.25314 -10.57946,3.00767 l -7.37262,-0.22998 -4.97335,-6.8 c -4.64055,-6.344965 -6.11207,-9.298781 -4.31753,-8.666661 0.41638,0.146664 2.67736,3.146664 5.0244,6.666661 l 4.26734,6.4 7.86989,0.23011 7.8699,0.23011 -0.5536,-2.23011 c -0.30447,-1.22656 -1.29696,-3.02661 -2.20556,-4.00012 -0.90858,-0.97351 -2.05189,-2.430971 -2.54069,-3.238811 -0.48879,-0.80784 -1.60872,-2.657376 -2.48872,-4.11008 -0.88,-1.452704 -3.22,-4.886007 -5.2,-7.629567 -4.17587,-5.786216 -5.14376,-7.212893 -7.02292,-10.351731 -0.7574,-1.265113 -2.72708,-4.044522 -4.37708,-6.176466 -1.65,-2.131943 -3.00128,-4.336851 -3.00285,-4.899795 -0.002,-0.562944 1.21383,-2.283534 2.70089,-3.823534 3.83684,-3.97344 10.92245,-11.65758 15.44189,-16.746276 5.59934,-6.304623 6.57216,-7.253723 7.43496,-7.253723 0.42619,0 0.56768,-0.54 0.31441,-1.2 -0.36551,-0.952498 -2.05159,-1.19872 -8.17489,-1.193799 -8.72204,0.007 -7.69788,-0.588512 -17.08524,9.934704 -2.32605,2.607499 -5.90093,6.567498 -7.9442,8.8 -2.04326,2.232502 -5.25476,5.786073 -7.13666,7.896825 -2.35999,2.646962 -3.93775,3.763968 -5.08498,3.6 -1.64353,-0.234902 -1.66809,-0.604376 -2.06333,-31.037729 l -0.4,-30.7999983 -6.07597,-0.2314186 c -4.45878,-0.1698236 -6.3235,0.066836 -7.00596,0.8891528 -0.69008,0.8314928 -0.87687,14.3058611 -0.72403,52.2314151 l 0.20596,51.110841 7,0.23115 7,0.23115 v -9.667513 c 0,-9.245343 0.0873,-9.754847 2,-11.667511 1.1,-1.1 2,-2.270576 2,-2.60128 0,-0.330704 1.36517,-1.934336 3.03372,-3.563632 3.60196,-3.517218 6.30479,-3.882751 7.04032,-0.952142 0.2775,1.105622 0.91436,2.275622 1.41524,2.599998 1.54771,1.002304 6.91072,8.391064 6.91072,9.521072 0,2.340135 -1.6324,0.778024 -5.51984,-5.282136 -2.24064,-3.492968 -4.44041,-6.577371 -4.88837,-6.854224 -0.44796,-0.276855 -2.60937,1.282112 -4.80313,3.464368 l -3.98866,3.967744 v 10.139071 c 0,5.576485 -0.37267,10.835405 -0.82815,11.686475 -0.73197,1.3677 -1.73541,1.54741 -8.64,1.54741 -5.00922,0 -8.15627,-0.34441 -8.77185,-0.96 z M 30.676063,75.565492 c -0.260548,-0.678976 -0.25795,-1.450276 0.0058,-1.714 0.569784,-0.569784 2.918164,1.238045 2.918164,2.246459 0,1.20727 -2.42586,0.765513 -2.923938,-0.532459 z m -4,-3.999999 c -0.260548,-0.678977 -0.25795,-1.450277 0.0058,-1.714001 0.569784,-0.569783 2.918164,1.238045 2.918164,2.246459 0,1.20727 -2.42586,0.765513 -2.923938,-0.532458 z M 25.61207,68.376885 c -0.0066,-0.452711 2.327931,-3.142311 5.187931,-5.976889 l 5.2,-5.153778 V 39.397413 c 0,-20.438958 0.466405,-22.671149 5.145514,-24.626205 3.593769,-1.501573 15.141445,-1.636455 14.657621,-0.171209 -0.215826,0.653624 -2.726242,1.13855 -7.247669,1.4 -10.682218,0.617695 -10.155466,-0.507784 -10.155466,21.698554 v 18.514215 l -6.387931,6.493614 c -3.513363,3.571487 -6.393363,6.123213 -6.4,5.670503 z M 21.083285,15.183579 c 0.806637,-4.033182 4.401429,-9.1025018 8.125596,-11.4585853 1.84739,-1.1687466 3.801143,-2.1249938 4.341673,-2.1249938 1.768242,0 0.397202,1.8988576 -1.794205,2.48493 -2.837178,0.7587785 -6.272744,4.9155743 -7.756348,9.3846431 -1.4698,4.427488 -3.724395,5.752398 -2.916716,1.714006 z"
         id="path653" />
      <path
         style="fill:#c4c4c4;stroke-width:0.8"
         d="m 36.800001,135.28558 c 0,-1.31497 2.228237,-1.58801 3.722241,-0.45609 1.364312,1.03366 1.278159,1.12156 -1.122241,1.14506 -1.43,0.014 -2.6,-0.29605 -2.6,-0.68897 z m 208.000009,-0.0856 c 0,-0.44 0.9,-0.8 2,-0.8 1.1,0 2,0.36 2,0.8 0,0.44 -0.9,0.8 -2,0.8 -1.1,0 -2,-0.36 -2,-0.8 z m -15.03003,-7.4 0.23003,-7.4 5.92248,-0.23752 c 3.3905,-0.13597 6.28053,0.12054 6.76,0.6 0.58336,0.58336 -0.74051,0.83752 -4.36248,0.83752 -2.97778,0 -5.61026,0.41026 -6.16,0.96 -0.57133,0.57133 -0.96,3.32445 -0.96,6.8 0,3.50082 -0.33247,5.84 -0.83003,5.84 -0.53011,0 -0.7469,-2.67377 -0.6,-7.4 z m -201.013354,4.33834 c -3.676075,-2.3376 -7.156625,-7.8202 -7.156625,-11.27318 0,-2.78492 1.3167,-1.23591 2.313122,2.72124 0.500453,1.98748 1.174731,3.62974 1.498396,3.64945 0.959527,0.0585 8.619713,7.16415 7.723201,7.16415 -0.451808,0 -2.421951,-1.01774 -4.378094,-2.26166 z m 225.093134,0.18797 c 1.2317,-1.05947 2.81519,-1.92631 3.51885,-1.92631 2.08485,0 -1.00347,2.94368 -3.61133,3.4422 l -2.14699,0.41042 z m 5.35025,-3.3304 c 0,-0.44 0.54,-1.24816 1.2,-1.79591 0.66939,-0.55554 1.2,-0.64217 1.2,-0.19591 0,0.44 -0.54,1.24816 -1.2,1.79591 -0.66939,0.55554 -1.2,0.64218 -1.2,0.19591 z m 3.73323,-7.86496 c 0.26134,-1.72202 0.83515,-3.49095 1.27515,-3.93095 0.53333,-0.53333 0.64162,0.24365 0.32485,2.33095 -0.26133,1.72203 -0.83514,3.49096 -1.27514,3.93096 -0.53333,0.53333 -0.64162,-0.24365 -0.32486,-2.33096 z m -222.234338,-0.0923 c -1.264395,-0.52876 -2.298901,-1.33876 -2.298901,-1.8 0,-1.0469 1.034224,-1.08439 2.044488,-0.0742 0.420468,0.42046 3.793492,0.87046 7.495608,1 3.702117,0.12953 6.850424,0.59551 6.996238,1.03551 0.380153,1.14713 -11.428533,1.01328 -14.237433,-0.16138 z M 245.80001,118.63 c 1.24622,-1.38506 1.4,-3.54384 1.4,-19.653443 V 80.879066 l 5.6,-5.734908 c 3.08,-3.154201 5.6,-6.151648 5.6,-6.660992 0,-0.509345 -2.52,-3.426771 -5.6,-6.48317 l -5.6,-5.557089 V 37.545443 c 0,-22.671898 0.60323,-21.365536 -10.02577,-21.711757 l -7.17423,-0.233687 -0.23235,-6.5999996 c -0.1474,-4.1865773 0.072,-6.5999996 0.6,-6.5999996 0.4972,0 0.83235,2.254884 0.83235,5.5999996 v 5.5999996 h 5.23973 c 6.15587,0 9.37289,1.398306 11.59265,5.038839 1.42727,2.340789 1.5619,4.120709 1.56463,20.686252 l 0.003,18.125092 5.6,5.184741 c 3.08,2.851608 5.6,5.572902 5.6,6.04732 0,0.474419 -2.52,3.382579 -5.6,6.462579 l -5.6,5.599996 -0.0121,16.227591 c -0.0129,17.336531 -0.82424,22.347971 -3.71093,22.920561 -1.41027,0.27974 -1.41375,0.22265 -0.077,-1.26299 z M 20.600001,115.73456 c -0.33,-0.80598 -0.6,-8.16014 -0.6,-16.342559 V 84.514874 L 14,78.349305 C 8.2770499,72.468429 8.0000003,72.011919 8.0000003,68.462771 c 0,-3.316138 0.3888592,-4.126772 3.5742177,-7.450984 1.96582,-2.051512 3.80182,-3.50242 4.08,-3.22424 0.278181,0.27818 -0.785081,1.796646 -2.362804,3.374369 -5.672688,5.672687 -5.0235497,9.85192 2.745223,17.674093 l 5.597537,5.636017 -0.217087,16.363984 c -0.119397,9.00019 -0.487086,15.70454 -0.817086,14.89855 z m 16.059778,0.91265 c -0.07712,-0.13597 -0.353655,-8.34722 -0.614518,-18.247217 -0.260862,-9.899999 -0.777845,-18.634081 -1.14885,-19.409071 -0.520353,-1.086962 -0.392655,-1.300897 0.558617,-0.93586 0.678244,0.260267 1.618327,1.578069 2.089073,2.928452 1.109705,3.183304 1.159505,34.734416 0.0559,35.416476 -0.44,0.27194 -0.863101,0.38319 -0.940223,0.24722 z m 227.507001,-16.18978 -0.16677,-15.942556 6,-6.165569 c 5.24466,-5.389384 6,-6.533173 6,-9.085587 0,-3.542019 -1.06389,-5.243733 -7.2305,-11.565375 l -4.7695,-4.889413 -0.009,-16.204465 c -0.005,-8.912457 -0.24102,-17.610438 -0.52486,-19.328846 -0.37392,-2.263837 -0.26132,-2.966947 0.40881,-2.552786 0.65639,0.405677 0.92485,5.908213 0.92485,18.956649 v 18.385056 l 6,5.961181 6,5.961181 v 4.587734 4.587735 l -5.8,5.836741 -5.8,5.83674 -0.43323,15.78207 -0.43323,15.78207 z m -193.166778,9.07848 c -1.301512,-0.75806 -1.4,-3.42759 -1.4,-37.94752 V 34.456292 l 1.72424,-0.922785 c 2.269055,-1.214361 45.359438,-0.51127 49.646858,0.810071 3.6429,1.122708 5.22981,3.000828 1.74822,2.06904 C 121.4437,36.071217 119.32,35.659135 118,35.49688 c -4.52428,-0.556128 -45.599489,-0.20063 -46.208428,0.399925 -0.334637,0.330029 -0.514637,16.598259 -0.4,36.15162 l 0.208431,35.551565 h 7.2 7.2 l 0.17188,-29.590163 c 0.156736,-26.983592 0.293528,-29.679122 1.552904,-30.599998 0.96424,-0.705071 4.942944,-1.009832 13.183513,-1.009832 11.58462,0 11.84391,0.03822 14.0471,2.070305 1.63895,1.511685 1.81288,1.889441 0.6446,1.4 -0.88,-0.368668 -7.36,-0.670305 -14.4,-0.670305 H 88.400003 l -0.203672,29.599997 c -0.183656,26.691926 -0.336224,29.698246 -1.552904,30.599996 -1.638096,1.2141 -13.613668,1.31815 -15.643425,0.13592 z m 48.399998,0.31797 -1.8,-0.36517 0.189,-28.544356 0.189,-28.544358 0.2218,27.131041 c 0.122,14.922068 0.54496,27.522063 0.93992,27.999993 0.44353,0.53671 3.19241,0.76919 7.1892,0.60804 L 132.8,107.87816 V 82.039074 c 0,-14.211492 0.22384,-26.958235 0.4974,-28.326093 1.35408,-6.770351 1.9026,0.908994 1.9026,26.636269 0,21.64601 -0.2339,28.44101 -1,29.05081 -1.01163,0.80524 -11.48476,1.12639 -14.8,0.45382 z m 37.19436,-0.006 c -1.32575,-0.34609 -1.39397,-3.39885 -1.2,-53.707191 l 0.20565,-53.3402892 h 8.4 8.4 l 0.42442,29.9999982 c 0.23344,16.499999 0.5064,30.179998 0.60659,30.399998 0.18583,0.408058 3.12607,-2.658055 13.76899,-14.358452 3.3,-3.627887 7.85458,-8.593165 10.1213,-11.033951 l 4.1213,-4.437793 5.8787,-0.368705 c 7.10319,-0.445503 11.36145,0.503843 11.76975,2.623974 0.24925,1.294289 0.10653,1.368837 -0.94687,0.494588 -0.81173,-0.673676 -3.93352,-1.049393 -9.03374,-1.087238 l -7.79339,-0.05783 -2.65503,3.112704 c -1.46027,1.711987 -4.33165,4.912704 -6.38085,7.112703 -17.18872,18.45368 -19.38966,20.606299 -20.59565,20.143516 -1.11962,-0.429638 -1.29075,-4.037216 -1.47599,-31.114748 L 170.00001,3.5999997 h -6.8 -6.8 V 55.599996 107.59999 l 7,0.23115 7,0.23115 v -9.283745 c 0,-8.463943 0.70444,-12.377679 2.22814,-12.379079 0.99195,-8e-4 0.10882,22.738314 -0.90834,23.388274 -0.98156,0.62721 -12.77322,0.67376 -15.12545,0.0597 z m 46.78366,-0.69281 c -0.97791,-0.68499 -1.77801,-1.82079 -1.77801,-2.52403 0,-1.16814 0.12124,-1.1689 1.40309,-0.009 1.02958,0.93175 3.31904,1.31145 8.6,1.42629 l 7.19691,0.1565 -0.12186,-2.53814 c -0.0766,-1.59428 -0.89466,-3.25435 -2.2,-4.4641 -1.14297,-1.05932 -2.07814,-2.465301 -2.07814,-3.124445 0,-0.659144 -0.477,-1.486336 -1.06,-1.8382 -1.04176,-0.628744 -7.6502,-10.161903 -10.28091,-14.830943 -0.73749,-1.308928 -2.01353,-3.151383 -2.83565,-4.094339 -0.82212,-0.942958 -3.04296,-3.980518 -4.93521,-6.750133 l -3.44046,-5.035665 3.74775,-4.164334 c 2.06128,-2.290385 5.51792,-5.964335 7.68144,-8.164335 2.16351,-2.2 3.93127,-4.280998 3.92835,-4.62444 -0.003,-0.343443 1.25817,-1.733794 2.80243,-3.08967 1.54426,-1.355876 3.42187,-3.504878 4.17248,-4.775559 0.75062,-1.270681 1.85713,-2.31033 2.45893,-2.31033 1.65252,0 1.00507,0.99021 -4.31382,6.597613 -12.99804,13.703063 -17.92533,19.286304 -17.92533,20.311625 0,1.206635 20.10608,31.13907 25.5825,38.085335 2.20441,2.79605 1.86047,5.56203 -0.7825,6.29289 -4.01151,1.10928 -13.95567,0.7744 -15.82199,-0.53283 z m -6.13402,-8.39971 c -1.62516,-2.262103 -3.1773,-4.707367 -3.4492,-5.433919 -0.44027,-1.176464 -0.33755,-1.193304 0.93876,-0.153888 0.78822,0.64192 1.75243,1.90192 2.14269,2.8 0.39026,0.898088 1.49865,2.616987 2.46308,3.819787 0.96445,1.2028 1.55237,2.38806 1.30652,2.63392 -0.24586,0.24586 -1.77669,-1.4038 -3.40185,-3.6659 z m -7.18691,-10.554966 c -0.81832,-1.43 -2.19452,-3.384264 -3.0582,-4.342816 -0.86369,-0.958544 -1.41421,-2.211192 -1.2234,-2.783656 0.21567,-0.646992 0.91711,-0.13888 1.85371,1.342816 0.82872,1.311008 2.33117,3.242744 3.33878,4.292744 1.79445,1.869936 2.44839,4.090911 1.20451,4.090911 -0.34513,0 -1.29706,-1.169999 -2.1154,-2.599999 z m -15.64711,-5.033432 c 0.0169,-1.299656 6.25335,-7.566567 7.52978,-7.566567 0.66217,0 1.58929,0.72 2.06025,1.599999 0.94397,1.763832 0.0696,2.14956 -1.44332,0.636687 -0.75108,-0.751086 -1.7557,-0.185643 -4.56,2.566569 -1.97817,1.941432 -3.5922,3.18492 -3.58671,2.763312 z M 31.360001,75.839995 c -0.528,-0.528 -0.96,-1.236702 -0.96,-1.574892 0,-0.995967 2.236756,0.155577 2.713037,1.396747 0.532646,1.388054 -0.443891,1.48729 -1.753037,0.178145 z m -4,-4 c -1.309146,-1.309146 -1.20991,-2.285683 0.178145,-1.753037 1.241169,0.476281 2.392713,2.713037 1.396747,2.713037 -0.33819,0 -1.046892,-0.432 -1.574892,-0.96 z m 1.04,-7.04 c 0.271935,-0.44 0.674427,-0.799999 0.894427,-0.799999 0.22,0 0.177508,0.359999 -0.09443,0.799999 -0.271935,0.44 -0.674427,0.8 -0.894427,0.8 -0.22,0 -0.177508,-0.36 0.09443,-0.8 z m 4,-3.999999 c 0.271935,-0.44 0.674427,-0.8 0.894427,-0.8 0.22,0 0.177508,0.36 -0.09443,0.8 -0.271935,0.44 -0.674427,0.8 -0.894427,0.8 -0.22,0 -0.177508,-0.36 0.09443,-0.8 z m 3.660863,-20.839999 c 0.06755,-19.935044 0.579212,-22.810457 4.402097,-24.738931 3.225803,-1.627273 15.865488,-2.208827 15.367816,-0.707075 -0.258958,0.781422 -2.353904,1.151549 -7.469567,1.319695 -5.072807,0.166738 -7.506541,0.592849 -8.49494,1.487338 -1.224196,1.107882 -1.413233,3.424997 -1.625769,19.927853 -0.17515,13.59996 -0.512224,18.945509 -1.2405,19.672661 -0.799957,0.798724 -0.987825,-2.594317 -0.939137,-16.961541 z M 17.576156,55.244551 c 0.457846,-0.855495 1.190513,-1.776741 1.628146,-2.047213 0.484427,-0.299393 0.795699,-6.713907 0.795699,-16.397341 0,-9.740763 0.31007,-16.097206 0.8,-16.399998 0.52321,-0.323363 0.8,5.07589 0.8,15.605378 0,15.709136 -0.393489,18.629074 -2.719764,20.182369 -1.58188,1.05625 -2.15306,0.643136 -1.304081,-0.943195 z M 116.8,51.599996 c 0,-0.22 0.18,-0.4 0.4,-0.4 0.22,0 0.4,0.18 0.4,0.4 0,0.22 -0.18,0.4 -0.4,0.4 -0.22,0 -0.4,-0.18 -0.4,-0.4 z m 14.85253,-5.67233 c -0.8043,-2.160218 -2.3825,-4.917669 -3.50712,-6.127669 -1.12461,-1.21 -1.61965,-2.2 -1.10009,-2.2 1.18031,0 5.64285,6.075881 6.25557,8.517141 0.9358,3.728521 -0.23992,3.593378 -1.64836,-0.189472 z M 21.372725,16.213048 C 20.251728,14.178829 26.934116,3.495993 28.41449,4.9556923 c 0.30996,0.3056309 -0.340527,1.3935754 -1.445527,2.4176544 -1.105,1.0240791 -2.414845,3.3688173 -2.910766,5.2105293 -0.887818,3.297103 -2.023041,4.831254 -2.685472,3.629172 z M 260.65012,9.8049041 c -1.87899,-2.1875442 -2.42093,-3.4049045 -1.51577,-3.4049045 0.96125,0 3.66778,3.8645444 3.10245,4.4298704 -0.20896,0.208966 -0.92297,-0.252268 -1.58668,-1.0249659 z M 253.00001,3.97507 c -1.78237,-0.7164235 -2.50701,-2.3750701 -1.03764,-2.3750701 1.33464,0 4.83764,1.8308576 4.83764,2.5284118 0,0.8431245 -1.46834,0.7838727 -3.8,-0.1533417 z M 30.752905,2.8181123 c 1.876901,-1.4722593 3.905979,-1.6004628 3.452067,-0.2181125 -0.180598,0.55 -1.380598,1.0981506 -2.666666,1.2181124 -2.230524,0.2080589 -2.266726,0.1619653 -0.785401,-0.9999999 z"
         id="path651" />
      <path
         style="fill:#bbbbbb;stroke-width:0.8"
         d="m 37.200001,135.19999 c -0.280418,-0.45373 0.391693,-0.8 1.552787,-0.8 1.125967,0 2.047213,0.36 2.047213,0.8 0,0.44 -0.698753,0.8 -1.552786,0.8 -0.854033,0 -1.775278,-0.36 -2.047214,-0.8 z m 207.600009,0 c 0,-0.44 0.72,-0.8 1.6,-0.8 0.88,0 1.6,0.36 1.6,0.8 0,0.44 -0.72,0.8 -1.6,0.8 -0.88,0 -1.6,-0.36 -1.6,-0.8 z m -15.2,-7.11441 c 0,-5.74941 0.24279,-7.20757 1.26543,-7.6 2.06611,-0.79284 10.59916,-0.55189 11.13457,0.31441 0.30663,0.49615 -1.16988,0.8 -3.88736,0.8 -6.86231,0 -6.91264,0.053 -6.91264,7.28559 0,3.67627 -0.33424,6.31441 -0.8,6.31441 -0.47336,0 -0.8,-2.9048 -0.8,-7.11441 z M 27.533289,130.8799 c -1.723309,-1.49605 -2.90812,-2.95121 -2.632915,-3.2337 0.275206,-0.2825 1.534037,0.58154 2.797402,1.92009 1.263367,1.33853 2.726952,2.4337 3.252414,2.4337 0.525461,0 1.177876,0.36 1.449811,0.8 1.12707,1.82364 -1.954981,0.60766 -4.866712,-1.92009 z m 226.066721,2.04851 c 0,-0.36938 0.9,-1.08166 2,-1.58286 2.3503,-1.07086 2.75218,0.19559 0.45259,1.4263 -1.87551,1.00374 -2.45259,1.04057 -2.45259,0.15656 z m 6.4,-4.92842 c 0,-0.58666 0.24,-0.82666 0.53334,-0.53333 0.29332,0.29333 0.29332,0.77333 0,1.06667 -0.29334,0.29332 -0.53334,0.0533 -0.53334,-0.53334 z M 22.483459,124.15594 c -0.541545,-1.01189 -0.838525,-2.45093 -0.659956,-3.19788 0.243393,-1.01808 0.563047,-0.77697 1.276858,0.96312 1.198556,2.92176 0.705901,4.70644 -0.616902,2.23476 z m 17.716542,-3.38088 c -0.99,-0.39793 -1.8,-1.10778 -1.8,-1.57744 0,-0.59635 0.466756,-0.60412 1.547408,-0.0258 0.851073,0.45548 4.429827,0.82815 7.952786,0.82815 3.522959,0 6.627872,0.36 6.899807,0.8 0.627287,1.01497 -12.066789,0.99329 -14.600001,-0.025 z m 223.000009,-1.12785 c 0,-0.68597 0.36,-1.24722 0.8,-1.24722 0.44,0 0.8,0.33875 0.8,0.75279 0,0.41403 -0.36,0.97528 -0.8,1.24721 -0.44,0.27194 -0.8,-0.0668 -0.8,-0.75278 z m -17.6,-0.4 c 0,-0.41403 0.36,-0.97528 0.8,-1.24722 0.44,-0.27193 0.8,0.0668 0.8,0.75279 0,0.68596 -0.36,1.24721 -0.8,1.24721 -0.44,0 -0.8,-0.33875 -0.8,-0.75278 z M 36.799297,98.799993 c -0.219613,-9.679999 -0.720405,-18.319999 -1.112873,-19.199999 -0.653044,-1.464271 -0.600812,-1.494446 0.615721,-0.355708 1.175781,1.100596 1.304304,3.317948 1.112874,19.200003 L 37.198594,116.39999 Z M 247.20001,98.714729 V 81.429466 l 5.70017,-5.878607 c 4.66242,-4.808375 5.63052,-6.242963 5.31758,-7.879952 -0.33329,-1.743544 -0.19162,-1.899148 1.09983,-1.207981 0.81533,0.43635 1.48242,1.181342 1.48242,1.655539 0,0.474197 -2.7,3.562175 -6,6.862175 l -6,6.000002 v 17.509671 c 0,11.139787 -0.29103,17.509677 -0.8,17.509677 -0.50865,0 -0.8,-6.29509 -0.8,-17.285261 z M 20.50423,113.39999 c -0.26531,-0.99 -0.487297,-7.93505 -0.493305,-15.433429 L 20.000001,84.33313 16.305413,80.766562 C 7.99705,72.74609 6.0665181,67.712734 9.8000003,63.805399 10.79,62.769299 11.15,62.507571 10.6,63.22378 c -0.55,0.716211 -0.9999997,3.03385 -0.9999997,5.15031 0,3.697192 0.235312,4.094408 6.0000007,10.128239 l 6,6.280129 v 15.208767 c 0,8.364825 -0.138013,15.208765 -0.306695,15.208765 -0.168682,0 -0.523767,-0.81 -0.789076,-1.8 z m 49.472605,-4.77278 C 69.760225,108.06224 69.676824,91.039994 69.7915,70.799995 l 0.208502,-36.799997 24.176961,-0.211696 c 20.304917,-0.177792 24.597047,-0.01629 26.799997,1.00841 1.77491,0.825597 1.97636,1.051683 0.62304,0.69922 -1.1,-0.286488 -12.36341,-0.683218 -25.029813,-0.881621 -17.333709,-0.27151 -23.319248,-0.120528 -24.200002,0.610433 -0.994596,0.825441 -1.170183,6.274265 -1.170183,36.313207 0,26.421586 0.242308,35.584349 0.960001,36.302039 1.363595,1.36359 12.183176,1.27438 13.332056,-0.10993 0.60652,-0.73081 0.95452,-10.429667 1.097952,-30.599998 l 0.209992,-29.530065 13.686767,-0.218405 c 10.32417,-0.164747 13.89475,0.0318 14.53333,0.8 0.67986,0.817866 -1.85773,1.018405 -12.88677,1.018405 H 88.400003 l -0.4,29.999997 -0.4,29.999996 -8.614665,0.22722 c -6.444592,0.16997 -8.713875,-0.0315 -9.008503,-0.8 z m 48.182725,0.46567 c -1.16192,-1.16191 -0.49747,-1.91595 0.98785,-1.12103 2.15601,1.15385 12.30607,1.05467 13.49259,-0.13186 0.70865,-0.70865 0.96637,-8.196877 0.98433,-28.599996 0.0163,-18.496249 0.28443,-27.19411 0.81056,-26.292155 0.48503,0.831467 0.70557,11.865116 0.57567,28.799995 L 134.8,109.19999 l -8.04044,0.22623 c -4.42224,0.12442 -8.29224,-0.0256 -8.6,-0.33334 z m 37.60001,0 c -1.16192,-1.16191 -0.49748,-1.91595 0.98784,-1.12103 2.15601,1.15385 12.30607,1.05467 13.4926,-0.13186 0.64209,-0.64209 0.96,-4.20284 0.96,-10.752781 0,-6.072831 0.32411,-9.993103 0.85322,-10.320111 0.46927,-0.290024 0.91927,-0.401272 1,-0.247216 0.0807,0.154064 -0.0332,5.320112 -0.25322,11.480111 l -0.4,11.199997 -8.04044,0.22623 c -4.42225,0.12442 -8.29225,-0.0256 -8.6,-0.33334 z m 46.64044,-1.09289 c -1.00745,-1.88243 0.15042,-2.14663 1.62437,-0.37064 0.80315,0.96774 2.48395,1.18055 7.89796,1 l 6.87767,-0.22936 0.45085,-2.8 0.45085,-2.8 1.06677,2.17631 c 1.88166,3.83879 0.3134,4.62369 -9.23828,4.62369 -7.45514,0 -8.35863,-0.15833 -9.13019,-1.6 z m -3.54857,-5.36549 c -0.43415,-1.14016 -0.34226,-1.23205 0.44784,-0.44784 0.54673,0.54267 0.79254,1.18819 0.54622,1.4345 -0.24631,0.24631 -0.69364,-0.19769 -0.99406,-0.98666 z m 16.64678,-3.165099 c -0.78629,-1.248176 -2.25505,-3.287032 -3.26392,-4.530792 -1.86555,-2.299912 -2.47152,-4.226871 -1.05366,-3.350591 1.27664,0.789016 6.65649,9.241522 6.18324,9.714762 -0.23982,0.23982 -1.07936,-0.5852 -1.86566,-1.833379 z m -20.56488,-2.402744 c -0.29333,-0.293328 -0.53333,-0.905328 -0.53333,-1.36 0,-0.50128 0.37261,-0.454048 0.94666,0.12 0.52067,0.520672 0.76067,1.132672 0.53334,1.36 -0.22734,0.227336 -0.65334,0.173336 -0.94667,-0.12 z m -4.88797,-6.844671 c -0.68495,-0.977896 -1.24536,-2.101976 -1.24536,-2.497952 0,-0.979304 2.30185,0.99776 3.27182,2.810168 1.1377,2.125815 -0.49498,1.874272 -2.02646,-0.312216 z m 16.1882,-4.421992 c -3.71683,-5.199272 -4.04411,-5.8 -3.15979,-5.8 0.4225,0 1.47684,1.20108 2.34298,2.669072 0.86614,1.467992 2.2031,3.627992 2.97102,4.8 2.3808,3.633552 0.71242,2.340904 -2.15421,-1.669072 z m -19.83356,-1.4 c -0.57404,-0.691672 -0.6518,-1.2 -0.18355,-1.2 0.4468,0 1.01958,0.54 1.27285,1.2 0.25326,0.66 0.33586,1.2 0.18354,1.2 -0.15231,0 -0.72509,-0.54 -1.27284,-1.2 z m 77.6,0.696768 c 0,-0.405248 2.7431,-3.4278 6.09579,-6.71679 3.35269,-3.288987 5.51363,-5.079977 4.80208,-3.979977 -1.69165,2.615177 -10.89787,11.651511 -10.89787,10.696767 z M 175.20694,84.35633 c 0.004,-0.415984 1.30408,-2.124976 2.88947,-3.797768 2.78008,-2.933327 5.03229,-3.575947 5.68299,-1.621516 0.19869,0.596802 -0.28753,0.780277 -1.33907,0.505293 -1.20505,-0.315129 -2.40594,0.392402 -4.44568,2.619279 -1.53705,1.678072 -2.79152,2.710696 -2.78771,2.294712 z m 24.43939,-7.505139 c -0.77578,-0.857238 -1.25603,-2.022091 -1.0672,-2.588564 0.216,-0.647988 0.88,-0.210871 1.79046,1.178676 1.73856,2.65337 1.25506,3.595893 -0.72326,1.409888 z M 31.200001,75.152781 c 0,-0.465967 0.36,-0.624721 0.8,-0.352786 0.44,0.271935 0.8,0.653181 0.8,0.847213 0,0.194033 -0.36,0.352787 -0.8,0.352787 -0.44,0 -0.8,-0.381247 -0.8,-0.847214 z m -4,-4 c 0,-0.465967 0.36,-0.624721 0.8,-0.352786 0.44,0.271935 0.8,0.653181 0.8,0.847214 0,0.194032 -0.36,0.352786 -0.8,0.352786 -0.44,0 -0.8,-0.381246 -0.8,-0.847214 z m 168.800009,0.108594 c 0,-0.406241 -0.95264,-1.870754 -2.11696,-3.254475 -1.96528,-2.335615 -2.0226,-2.610205 -0.8,-3.832809 1.2226,-1.222603 1.31696,-1.136113 1.31696,1.207262 0,1.388318 0.35806,2.745511 0.79569,3.015984 1.31978,0.815666 2.58263,3.602658 1.63245,3.602658 -0.45548,0 -0.82814,-0.332379 -0.82814,-0.73862 z m -24.8016,-6.26138 c -8e-4,-0.33 -0.0909,-14.550122 -0.2,-31.600272 -0.13056,-20.398938 0.0752,-30.9090541 0.6016,-30.7335356 0.50892,0.169687 0.87641,11.0012576 1.01003,29.7703036 0.11636,16.344904 0.5348,29.828337 0.93821,30.231747 0.43757,0.437573 1.75313,-0.439181 3.29643,-2.1969 1.41254,-1.608793 2.76789,-2.725441 3.01189,-2.481438 0.62626,0.626251 -6.36956,7.610095 -7.62313,7.610095 -0.56839,0 -1.03415,-0.27 -1.03503,-0.6 z m 103.66836,-0.714502 c -0.66974,-1.745325 0.2195,-2.556562 1.16449,-1.062329 0.94603,1.49589 0.96617,2.376831 0.0543,2.376831 -0.39293,0 -0.9414,-0.591526 -1.21883,-1.314502 z m -23.49409,-4.510653 -4.17267,-4.225157 -0.0122,-18.374842 c -0.007,-10.135264 -0.3513,-18.912941 -0.76837,-19.574842 -0.55646,-0.883146 -2.82401,-1.305619 -8.58774,-1.6 l -7.83164,-0.4 -0.23345,-6.6678868 c -0.15663,-4.4737718 0.0408,-6.4983894 0.6,-6.1527861 0.45839,0.2833054 0.83345,2.7953386 0.83345,5.5822957 0,5.8273612 0.2386,6.0383772 6.82778,6.0383772 2.36331,0 5.24087,0.430086 6.39457,0.955748 4.00234,1.823585 4.37765,3.810636 4.37765,23.177043 v 17.812248 l 3.76993,3.827479 c 2.07345,2.105113 3.59116,3.827479 3.37267,3.827479 -0.21849,0 -2.27496,-1.90132 -4.56993,-4.225156 z m 19.39443,0.171931 c -0.29002,-0.469274 -0.33522,-1.045322 -0.10044,-1.280109 0.57306,-0.573049 2.13334,0.436659 2.13334,1.380547 0,1.022378 -1.38113,0.954141 -2.0329,-0.100438 z M 14,59.199996 c 0.271936,-0.44 0.674428,-0.8 0.894428,-0.8 0.22,0 0.177508,0.36 -0.09443,0.8 -0.271936,0.44 -0.674428,0.8 -0.894428,0.8 -0.22,0 -0.177508,-0.36 0.09443,-0.8 z m 185.20001,-1.437642 c 0,-0.350703 1.50168,-2.060703 3.33707,-3.799999 l 3.33706,-3.162359 -3.03344,3.8 c -3.05262,3.824042 -3.64069,4.334846 -3.64069,3.162358 z m 67.5671,-1.815583 c -0.29002,-0.469273 -0.33522,-1.045322 -0.10044,-1.280108 0.57306,-0.57305 2.13334,0.436659 2.13334,1.380547 0,1.022377 -1.38113,0.95414 -2.0329,-0.100439 z M 17.750001,55.149996 c 0.1925,-0.5775 0.8225,-1.2075 1.4,-1.4 0.6,-0.2 0.9,0.1 0.7,0.7 -0.1925,0.5775 -0.8225,1.2075 -1.4,1.4 -0.6,0.2 -0.9,-0.1 -0.7,-0.7 z M 37.143033,37.999997 c 5.61e-4,-10.119999 0.115209,-14.149687 0.254773,-8.954863 0.139564,5.194825 0.139105,13.474825 -0.001,18.399999 -0.140107,4.925175 -0.254295,0.674864 -0.253733,-9.445136 z m 146.772587,15.0111 c 2.73844,-3.567636 4.08439,-4.760771 4.08439,-3.620672 0,0.37667 -1.50427,2.107916 -3.34282,3.847213 l -3.34281,3.162358 z M 117.6,54.399996 c 0,-0.586666 0.24,-0.826666 0.53334,-0.533333 0.29333,0.293333 0.29333,0.773333 0,1.066667 C 117.84,55.226663 117.6,54.986663 117.6,54.399996 Z M 20.056229,38.247211 c 0.03093,-8.055967 0.365623,-15.367213 0.743772,-16.247213 0.416535,-0.969329 0.709707,4.609263 0.743772,14.152786 0.03463,9.701324 -0.251094,15.94272 -0.743772,16.247212 -0.522964,0.32321 -0.780529,-4.577824 -0.743772,-14.152785 z M 264.00001,51.599996 c 0,-0.22 0.18,-0.4 0.4,-0.4 0.22,0 0.4,0.18 0.4,0.4 0,0.22 -0.18,0.4 -0.4,0.4 -0.22,0 -0.4,-0.18 -0.4,-0.4 z m -56.8,-2.65483 c 0,-0.966844 1.51776,-2.094076 2.07256,-1.539278 0.20136,0.201359 -0.18259,0.821488 -0.85323,1.378064 -0.76031,0.630999 -1.21933,0.691689 -1.21933,0.161214 z m -74.8902,-1.545169 c -0.24198,-0.77 -0.77652,-2.3 -1.18785,-3.4 l -0.74788,-2 1.61296,1.888627 c 0.88713,1.038745 1.61296,2.568745 1.61296,3.4 0,1.897393 -0.70964,1.958652 -1.29019,0.111373 z m 58.7164,-2.2 c 1.05024,-2.032197 4.9738,-5.736912 4.9738,-4.696385 0,0.430385 -1.30516,2.023138 -2.90035,3.539451 -1.75057,1.664012 -2.57254,2.122651 -2.07345,1.156934 z m 19.41137,0.8 c 0.0431,-1.126329 6.2041,-8.024991 6.71266,-7.516437 0.23006,0.230066 -1.19306,2.195382 -3.16251,4.367369 -1.96945,2.171987 -3.56702,3.589068 -3.55015,3.149068 z M 128.01605,39.61933 c -0.631,-0.760307 -0.69169,-1.219333 -0.16121,-1.219333 0.96684,0 2.09407,1.51776 1.53928,2.072558 -0.20136,0.201359 -0.82149,-0.182592 -1.37807,-0.853225 z m 71.18396,-3.207149 c 0,-1.939275 3.22471,-2.76263 10.91441,-2.786741 6.49132,-0.02035 8.20652,0.214586 8.57489,1.174558 0.51132,1.33249 -0.71022,1.660575 -1.4893,0.4 -0.27194,-0.44 -3.77483,-0.8 -7.78423,-0.8 -5.66056,0 -7.61676,0.295903 -8.75278,1.32399 -0.80465,0.728194 -1.46299,1.037881 -1.46299,0.688193 z M 38.095852,17.238693 c 0.628268,-1.63724 4.552809,-2.682114 11.30415,-3.009631 4.331736,-0.210137 5.8,-0.0216 5.8,0.744786 0,0.757808 -1.857213,1.026151 -7.102044,1.026151 -5.336969,0 -7.34956,0.298237 -8.097957,1.2 -1.271408,1.531952 -2.486643,1.556648 -1.904149,0.0387 z M 263.20001,16.752785 c 0,-0.905967 0.36,-1.424721 0.8,-1.152786 0.44,0.271935 0.8,1.013181 0.8,1.647213 0,0.634033 -0.36,1.152787 -0.8,1.152787 -0.44,0 -0.8,-0.741247 -0.8,-1.647214 z M 21.600001,15.112903 c 0,-1.103903 0.565829,-2.705903 1.2574,-3.56 1.188095,-1.467312 1.231362,-1.399953 0.785,1.222096 -0.594975,3.495039 -2.0424,5.151884 -2.0424,2.337904 z M 260.08032,8.563617 c -1.01193,-1.6850472 -0.99489,-1.7020952 0.38267,-0.3826656 0.79298,0.759524 1.26958,1.5531519 1.05912,1.7636175 -0.21047,0.2104651 -0.85927,-0.4109632 -1.44179,-1.3809519 z M 25.487895,7.4445543 c 1.019912,-1.944586 2.512106,-3.1419492 2.512106,-2.0157584 0,0.397773 -0.772383,1.4090191 -1.716407,2.2472135 C 24.579105,9.189417 24.573579,9.1878098 25.487895,7.4445543 Z M 155.60001,3.9999997 c 0.27193,-0.4399999 0.67442,-0.7999999 0.89442,-0.7999999 0.22,0 0.17751,0.36 -0.0944,0.7999999 -0.27194,0.44 -0.67443,0.8 -0.89443,0.8 -0.22,0 -0.17751,-0.36 0.0944,-0.8 z m 97.8,-0.1298245 c -2.63475,-0.9622912 -2.99466,-2.6162905 -0.4,-1.8382269 1.89609,0.5685843 4.69377,2.813155 3.37143,2.7048934 -0.42429,-0.034737 -1.76143,-0.4247367 -2.97143,-0.8666665 z M 31.517859,2.8001835 c 0.834821,-0.631912 1.863256,-0.9354628 2.28541,-0.6745572 0.925005,0.5716842 -0.894596,1.8554652 -2.603268,1.8366805 -0.922829,-0.010145 -0.849411,-0.2785682 0.317858,-1.1621233 z"
         id="path649" />
      <path
         style="fill:#b3b3b3;stroke-width:0.8"
         d="m 38.000001,135.19999 c -0.271935,-0.44 0.06682,-0.8 0.752787,-0.8 0.685967,0 1.247213,0.36 1.247213,0.8 0,0.44 -0.338753,0.8 -0.752786,0.8 -0.414033,0 -0.975278,-0.36 -1.247214,-0.8 z m 207.600009,0 c 0,-0.44 0.56125,-0.8 1.24721,-0.8 0.68597,0 1.02472,0.36 0.75279,0.8 -0.27194,0.44 -0.83319,0.8 -1.24722,0.8 -0.41403,0 -0.75278,-0.36 -0.75278,-0.8 z m -15.66109,-7.2 0.0611,-6.8 6,-0.0654 c 5.19593,-0.0566 5.33902,-0.025 1.06774,0.23642 -2.71276,0.16598 -5.3046,0.75041 -5.75965,1.29872 -0.45507,0.54831 -0.96303,3.50193 -1.12883,6.56358 -0.26334,4.86317 -0.29372,4.7073 -0.24035,-1.23335 z m 24.86109,4 c 0.27193,-0.44 0.85442,-0.8 1.29442,-0.8 0.44,0 0.57751,0.36 0.30558,0.8 -0.27194,0.44 -0.85443,0.8 -1.29443,0.8 -0.44,0 -0.57751,-0.36 -0.30557,-0.8 z M 26.383956,129.98065 c -1.5459,-1.86269 -0.442847,-2.21371 1.211607,-0.38556 0.79883,0.88269 1.080703,1.6049 0.626384,1.6049 -0.454319,0 -1.281415,-0.5487 -1.837991,-1.21934 z m -4.303955,-7.26066 c -0.284714,-0.74195 -0.337662,-1.52901 -0.117662,-1.74901 0.22,-0.22 0.632948,0.20706 0.917662,0.94901 0.284713,0.74195 0.337661,1.52901 0.117661,1.74901 -0.22,0.22 -0.632948,-0.20706 -0.917661,-0.94901 z m 23.341147,-1.7068 c 1.88163,-0.16899 4.761631,-0.16661 6.4,0.006 1.63837,0.1719 0.09885,0.31017 -3.421146,0.30727 -3.52,-0.003 -4.860484,-0.14356 -2.978854,-0.31256 z m -6.221147,-1.4132 c 0,-0.22 0.18,-0.4 0.4,-0.4 0.22,0 0.4,0.18 0.4,0.4 0,0.22 -0.18,0.4 -0.4,0.4 -0.22,0 -0.4,-0.18 -0.4,-0.4 z m 224.000009,0 c 0,-0.22 0.18,-0.4 0.4,-0.4 0.22,0 0.4,0.18 0.4,0.4 0,0.22 -0.18,0.4 -0.4,0.4 -0.22,0 -0.4,-0.18 -0.4,-0.4 z m -16.8,-0.8 c 0,-0.22 0.18,-0.4 0.4,-0.4 0.22,0 0.4,0.18 0.4,0.4 0,0.22 -0.18,0.4 -0.4,0.4 -0.22,0 -0.4,-0.18 -0.4,-0.4 z M 36.983219,98.359993 C 36.855825,86.372786 36.511564,80.831554 35.853335,80.17333 35.332668,79.652661 35.1235,79.009828 35.388518,78.74481 c 0.265018,-0.265017 0.878207,0.258749 1.362643,1.163926 0.584268,1.091714 0.802433,7.37661 0.648035,18.668513 l -0.232759,17.022741 z m 210.216791,0.08722 c 0,-10.305575 0.30787,-16.943063 0.8,-17.247215 0.52389,-0.323776 0.8,5.45836 0.8,16.752783 0,10.964799 -0.29141,17.247209 -0.8,17.247209 -0.50787,0 -0.8,-6.11759 -0.8,-16.752777 z m -226.069468,1.15278 c 8e-4,-7.919999 0.120561,-11.051791 0.266048,-6.959536 0.145488,4.092256 0.144801,10.572253 -0.0015,14.400003 -0.146332,3.82774 -0.265366,0.47953 -0.264528,-7.440467 z M 70.400002,71.599995 V 33.599998 l 21.000001,0.179264 20.999997,0.179263 -20.399997,0.420737 -20.4,0.420736 v 36.799997 36.799995 h 7.2 7.2 l 0.4,-30.399995 0.4,-30.399998 13.139512,-0.220486 c 8.211245,-0.137788 13.447255,0.08726 13.960005,0.6 0.56064,0.560647 -3.38336,0.820486 -12.45392,0.820486 -11.573077,0 -13.339037,0.168403 -13.778621,1.313936 -0.277312,0.722665 -0.48716,13.952664 -0.466328,29.399998 0.0208,15.447334 0.0292,28.536059 0.01864,29.086059 -0.01419,0.73529 -2.242896,1 -8.419288,1 H 70.400002 Z M 118.4,108.75278 c 0,-0.46597 0.36,-0.62472 0.8,-0.35279 0.44,0.27194 0.8,0.65319 0.8,0.84722 0,0.19403 -0.36,0.35278 -0.8,0.35278 -0.44,0 -0.8,-0.38125 -0.8,-0.84721 z m 7.97665,0.26666 c 3.47457,-0.17247 6.23249,-0.69915 6.58775,-1.25806 0.33611,-0.52876 0.64908,-13.201387 0.69551,-28.161386 0.0561,-18.080903 0.33215,-26.343498 0.82339,-24.645271 0.40644,1.4051 0.64398,14.185099 0.52785,28.399999 L 134.8,109.19999 l -7.2,0.0581 c -6.46204,0.0521 -6.58742,0.0277 -1.22335,-0.23861 z m 29.62149,0.009 c -8e-4,-0.34539 3.11047,-0.51007 6.91445,-0.36596 5.10743,0.1935 7.09242,-0.0158 7.58962,-0.8 0.37032,-0.58411 0.67881,-5.27078 0.68555,-10.414807 0.007,-5.532759 0.34838,-9.560527 0.83522,-9.861415 0.55278,-0.341632 0.74977,3.123032 0.6,10.552783 l -0.22297,11.061389 -8.2,0.22799 c -4.51,0.12539 -8.20084,-0.0546 -8.20187,-0.4 z m 47.09982,-0.82801 c -0.96441,-1.22972 -0.94715,-1.28262 0.14192,-0.43494 0.68193,0.53078 4.28193,1.08751 8,1.23717 l 6.76013,0.2721 -6.90205,0.16283 c -5.74773,0.13561 -7.08566,-0.0713 -8,-1.23716 z m 15.86857,0.48935 c 0.54361,-0.65952 0.74544,-2.0295 0.46126,-3.13098 -0.45284,-1.75522 -0.36637,-1.84447 0.83349,-0.86042 1.84555,1.51364 1.67521,3.06647 -0.46127,4.20488 -1.55088,0.82638 -1.66623,0.79684 -0.83348,-0.21348 z m -3.23319,-8.42268 c -0.76456,-0.764555 -0.65764,-1.866667 0.18108,-1.866667 0.39292,0 0.92162,0.54 1.17489,1.2 0.46794,1.219427 -0.38424,1.638387 -1.35597,0.666667 z m -21.33333,-3.866667 c 0,-0.22 0.18,-0.4 0.4,-0.4 0.22,0 0.4,0.18 0.4,0.4 0,0.22 -0.18,0.4 -0.4,0.4 -0.22,0 -0.4,-0.18 -0.4,-0.4 z m 17.66481,-1.878888 c -1.3068,-2.441791 -1.0362,-3.121815 0.41679,-1.047384 0.70488,1.00636 1.09405,2.017296 0.86481,2.24652 -0.22923,0.229232 -0.80595,-0.310376 -1.2816,-1.199136 z m -21.55053,-4.235399 c -0.56383,-0.902832 -0.84937,-1.817296 -0.63453,-2.032136 0.21484,-0.214832 0.80895,0.391056 1.32025,1.346424 1.20901,2.259064 0.64752,2.82056 -0.68572,0.685712 z m -4.11428,-5.885712 c 0,-0.22 0.18,-0.4 0.4,-0.4 0.22,0 0.4,0.18 0.4,0.4 0,0.22 -0.18,0.4 -0.4,0.4 -0.22,0 -0.4,-0.18 -0.4,-0.4 z m 17.33333,-1.733336 c -0.29333,-0.293328 -0.53333,-0.905328 -0.53333,-1.36 0,-0.50128 0.37261,-0.454048 0.94666,0.12 0.52067,0.520672 0.76067,1.132672 0.53334,1.36 -0.22734,0.227336 -0.65334,0.173336 -0.94667,-0.12 z m -24.53333,-3.066664 c 0,-0.22 0.18,-0.4 0.4,-0.4 0.22,0 0.4,0.18 0.4,0.4 0,0.22 -0.18,0.4 -0.4,0.4 -0.22,0 -0.4,-0.18 -0.4,-0.4 z m 70.4,-0.25483 c 0,-0.966844 1.51776,-2.094077 2.07256,-1.539278 0.20136,0.201359 -0.18259,0.821488 -0.85323,1.378064 -0.76031,0.630999 -1.21933,0.691688 -1.21933,0.161214 z m -67.2,-0.54517 c 0,-0.22 0.18,-0.4 0.4,-0.4 0.22,0 0.4,0.18 0.4,0.4 0,0.22 -0.18,0.4 -0.4,0.4 -0.22,0 -0.4,-0.18 -0.4,-0.4 z m 16.83667,-2.731483 c -0.49144,-0.918264 -0.55907,-1.668516 -0.15041,-1.668516 0.82221,0 1.95731,2.423101 1.39739,2.983019 -0.19472,0.194708 -0.75585,-0.396818 -1.24698,-1.314503 z M 31.523608,75.076388 c -0.353664,-0.57224 -0.219453,-0.70645 0.352787,-0.352787 0.922201,0.569953 1.238132,1.276394 0.57082,1.276394 -0.194033,0 -0.609655,-0.415624 -0.923607,-0.923607 z m 222.076402,0.268776 c 0,-0.966844 1.51776,-2.094076 2.07256,-1.539278 0.20136,0.201359 -0.18259,0.821488 -0.85323,1.378064 -0.76031,0.630999 -1.21933,0.691689 -1.21933,0.161214 z M 9.0288115,68.399995 c 0.006,-2.2 0.1613704,-3.00505 0.3452536,-1.789 0.183884,1.21605 0.1789696,3.01605 -0.01092,4 -0.1898896,0.98395 -0.3403392,-0.011 -0.3343336,-2.211 z m 18.4947955,2.676394 c -0.353663,-0.57224 -0.219452,-0.706451 0.352788,-0.352788 0.922201,0.569953 1.238132,1.276394 0.57082,1.276394 -0.194033,0 -0.609656,-0.415623 -0.923608,-0.923606 z m 230.103023,0.37082 c -0.0146,-0.524033 0.34802,-1.184329 0.80592,-1.467326 0.4579,-0.282997 0.60012,-1.246835 0.31605,-2.141864 -0.35908,-1.131361 -0.20137,-1.522284 0.51746,-1.282674 1.69077,0.563589 1.68635,1.882585 -0.0131,3.923545 -0.87983,1.056608 -1.61166,1.492351 -1.6263,0.968319 z m -61.62662,-0.647214 c 0,-0.22 0.18,-0.4 0.4,-0.4 0.22,0 0.4,0.18 0.4,0.4 0,0.22 -0.18,0.4 -0.4,0.4 -0.22,0 -0.4,-0.18 -0.4,-0.4 z m -3.2,-5.2 c 0,-0.88 0.13801,-1.599999 0.30669,-1.599999 0.16868,0 0.49498,0.719999 0.72511,1.599999 0.23012,0.88 0.0921,1.6 -0.3067,1.6 -0.39881,0 -0.7251,-0.72 -0.7251,-1.6 z m -21.2096,-1 c -0.19767,-0.549999 -0.45636,-14.7244 -0.57489,-31.498668 -0.17059,-24.1406108 -0.007,-30.4185612 0.78449,-30.1144066 0.77532,0.2979258 1,7.1054156 1,30.2986686 0,18.763419 0.28884,29.914407 0.77489,29.914407 0.42619,0 0.56767,0.54 0.31441,1.199999 -0.5597,1.458552 -1.80758,1.567116 -2.2989,0.2 z m 103.34294,-0.333333 c -0.29334,-0.293333 -0.53334,-0.905333 -0.53334,-1.36 0,-0.501283 0.37262,-0.45405 0.94666,0.12 0.52068,0.520667 0.76068,1.132667 0.53334,1.36 -0.22734,0.227333 -0.65334,0.173333 -0.94666,-0.12 z m -3.83539,-4.866666 c -0.99509,-1.268845 -0.9668,-1.297141 0.30205,-0.302044 0.77,0.603875 1.4,1.233875 1.4,1.4 0,0.658427 -0.65695,0.234642 -1.70205,-1.097956 z m -93.09795,-0.2 c 0.27193,-0.44 0.65318,-0.8 0.84721,-0.8 0.19403,0 0.35279,0.36 0.35279,0.8 0,0.44 -0.38125,0.8 -0.84722,0.8 -0.46597,0 -0.62472,-0.36 -0.35278,-0.8 z m 22,-2.4 c 0,-0.586666 0.24,-0.826666 0.53333,-0.533334 0.29333,0.293334 0.29333,0.773334 0,1.066668 -0.29333,0.293332 -0.53333,0.05333 -0.53333,-0.533334 z m 47.68559,-1.265429 c -0.85109,-2.217895 -0.55675,-34.734568 0.31441,-34.734568 0.50963,0 0.8,6.533333 0.8,17.999998 0,9.9 -0.14149,17.999999 -0.31441,17.999999 -0.17293,0 -0.53293,-0.569443 -0.8,-1.265429 z m 19.41236,-0.134571 c -0.99509,-1.268845 -0.9668,-1.297141 0.30205,-0.302044 1.3326,1.045095 1.75638,1.702044 1.09795,1.702044 -0.16612,0 -0.79612,-0.63 -1.4,-1.4 z M 18.416045,54.780663 c 0.556576,-0.670632 1.176705,-1.054584 1.378064,-0.853224 0.554799,0.554797 -0.572434,2.072557 -1.539278,2.072557 -0.530474,0 -0.469785,-0.459026 0.161214,-1.219333 z M 37.139812,37.599997 c 0,-9.459999 0.115722,-13.329999 0.25716,-8.599999 0.141438,4.73 0.141438,12.469999 0,17.199999 -0.141438,4.729999 -0.25716,0.86 -0.25716,-8.6 z m -16.007744,0 c 0,-8.139999 0.118794,-11.469999 0.263987,-7.399999 0.145193,4.07 0.145193,10.729999 0,14.799999 -0.145193,4.07 -0.263987,0.74 -0.263987,-7.4 z M 185.60001,51.345166 c 0,-0.966844 1.51776,-2.094077 2.07256,-1.539278 0.20136,0.201359 -0.1826,0.821488 -0.85323,1.378064 -0.76031,0.630999 -1.21933,0.691688 -1.21933,0.161214 z m 22.4,-2.945169 c 0,-0.22 0.18,-0.4 0.4,-0.4 0.22,0 0.4,0.18 0.4,0.4 0,0.22 -0.18,0.4 -0.4,0.4 -0.22,0 -0.4,-0.18 -0.4,-0.4 z m -75.6329,-1.253225 c -0.29003,-0.469274 -0.35575,-1.0248 -0.14604,-1.234502 0.20969,-0.209704 0.59445,0.174248 0.855,0.853224 0.54094,1.409686 0.0799,1.657647 -0.70896,0.381278 z m 61.2329,-4.550864 c 0,-0.44 0.54,-1.24816 1.2,-1.795911 0.66939,-0.555546 1.2,-0.642173 1.2,-0.195911 0,0.44 -0.54,1.24816 -1.2,1.795911 -0.6694,0.555546 -1.2,0.642173 -1.2,0.195911 z m 21.6,-2.501484 c 0,-0.44 0.36,-1.022492 0.8,-1.294427 0.44,-0.271935 0.8,-0.134427 0.8,0.305573 0,0.44 -0.36,1.022492 -0.8,1.294427 -0.44,0.271935 -0.8,0.134427 -0.8,-0.305573 z M 115.6,34.399998 c -0.27193,-0.44 0.22558,-0.8 1.10558,-0.8 0.88,0 1.82249,0.36 2.09442,0.8 0.27194,0.44 -0.22557,0.8 -1.10557,0.8 -0.88,0 -1.82249,-0.36 -2.09443,-0.8 z m 101.52362,-0.123607 c -0.35367,-0.57224 -0.21946,-0.70645 0.35278,-0.352787 0.50798,0.313952 0.92361,0.729574 0.92361,0.923607 0,0.667312 -0.70644,0.351382 -1.27639,-0.57082 z m -10.52361,-0.459168 c 1.65,-0.172596 4.35,-0.172596 6,0 1.65,0.172595 0.3,0.31381 -3,0.31381 -3.3,0 -4.65,-0.141215 -3,-0.31381 z M 38.800001,16.799999 c 0.271936,-0.44 0.674428,-0.8 0.894428,-0.8 0.22,0 0.177508,0.36 -0.09443,0.8 -0.271935,0.44 -0.674427,0.8 -0.894427,0.8 -0.22,0 -0.177508,-0.36 0.09443,-0.8 z m 224.400009,-0.04721 c 0,-0.465967 0.36,-0.624721 0.8,-0.352786 0.44,0.271935 0.8,0.653181 0.8,0.847213 0,0.194033 -0.36,0.352787 -0.8,0.352787 -0.44,0 -0.8,-0.381247 -0.8,-0.847214 z M 21.953324,13.999999 c 0.307943,-1.32 0.940902,-2.76 1.406574,-3.2 0.591061,-0.558477 0.677641,-0.07543 0.28678,1.6 -0.307944,1.32 -0.940902,2.76 -1.406574,3.2 -0.591062,0.558477 -0.677642,0.07543 -0.28678,-1.6 z m 21.246678,1.2 c 0,-0.462778 2.549071,-0.8 6.047213,-0.8 3.827761,0 5.865749,0.293617 5.552787,0.8 -0.271935,0.44 -2.993181,0.8 -6.047214,0.8 -3.168524,0 -5.552786,-0.343505 -5.552786,-0.8 z m 187.360008,-0.16 c -0.59771,-0.59771 -0.90291,-3.088453 -0.80874,-6.5999996 l 0.15127,-5.6399996 0.2938,4.7723292 c 0.16159,2.624781 0.6776,5.234781 1.14669,5.8 0.53141,0.640312 2.77599,1.02767 5.95493,1.02767 2.86803,0 5.10205,0.350294 5.10205,0.8 0,1.155045 -10.66914,1.010867 -11.84,-0.16 z M 26.400001,6.7999995 c 0,-0.22 0.18,-0.3999999 0.4,-0.3999999 0.22,0 0.4,0.1799999 0.4,0.3999999 0,0.22 -0.18,0.4 -0.4,0.4 -0.22,0 -0.4,-0.18 -0.4,-0.4 z M 252.60001,3.4485394 c -0.77,-0.2012221 -1.4,-0.6994616 -1.4,-1.1071989 0,-1.0117676 0.83782,-0.8916811 3.2,0.4586593 1.93115,1.1039473 1.09521,1.4051373 -1.8,0.6485396 z M 32.266668,2.6666665 c 0.293333,-0.2933333 0.773333,-0.2933333 1.066667,0 0.293333,0.2933333 0.05333,0.5333333 -0.533334,0.5333333 -0.586666,0 -0.826666,-0.24 -0.533333,-0.5333333 z"
         id="path647" />
      <path
         style="fill:#a8a8a8;stroke-width:0.8"
         d="m 255.20001,132.39999 c 0,-0.22 0.18,-0.4 0.4,-0.4 0.22,0 0.4,0.18 0.4,0.4 0,0.22 -0.18,0.4 -0.4,0.4 -0.22,0 -0.4,-0.18 -0.4,-0.4 z M 26.400001,129.55277 c 0,-0.46596 0.36,-0.62472 0.8,-0.35278 0.44,0.27194 0.8,0.65318 0.8,0.84722 0,0.19403 -0.36,0.35278 -0.8,0.35278 -0.44,0 -0.8,-0.38125 -0.8,-0.84722 z m 203.399629,-7.35278 c 0.18313,-0.55 1.01167,-1.13152 1.8412,-1.29227 1.30488,-0.25286 1.36364,-0.11803 0.43575,1 -1.26896,1.52901 -2.75212,1.71938 -2.27695,0.29227 z m 18.539,-24.199997 c 6.6e-4,-9.239999 0.11711,-12.910431 0.25879,-8.156519 0.14168,4.753911 0.14115,12.313906 -8e-4,16.799996 -0.14234,4.48609 -0.25826,0.59652 -0.2576,-8.643477 z M 133.40648,89.324594 c 0.11356,-11.068531 0.30885,-23.364599 0.43397,-27.324598 0.12511,-3.96 0.3022,4.928753 0.39352,19.752782 0.0913,14.824031 -0.10397,27.120102 -0.43397,27.324602 -0.33,0.20449 -0.50708,-8.68426 -0.39352,-19.752786 z m 37.65319,10.076511 c 0.33957,-13.340119 1.74034,-14.971255 1.74034,-2.026544 0,9.272279 -0.35867,12.224099 -1.4856,12.226539 -0.28292,6.2e-4 -0.39756,-4.58938 -0.25474,-10.199995 z M 70.400002,107.95278 c 0,-0.46597 0.36,-0.62472 0.8,-0.35279 0.440001,0.27194 0.800001,0.65319 0.800001,0.84722 0,0.19403 -0.36,0.35278 -0.800001,0.35278 -0.44,0 -0.8,-0.38125 -0.8,-0.84721 z m 15.600001,0.0472 c 0.271936,-0.44 0.653184,-0.8 0.847216,-0.8 0.194032,0 0.352784,0.36 0.352784,0.8 0,0.44 -0.381248,0.8 -0.847216,0.8 -0.465968,0 -0.62472,-0.36 -0.352784,-0.8 z M 220.00001,106.4472 c 0,-1.93166 0.44489,-2.12653 1.07947,-0.47284 0.24786,0.64591 0.10638,1.38716 -0.31441,1.64721 -0.42078,0.26007 -0.76506,-0.2684 -0.76506,-1.17437 z m -4.47639,-7.370825 c -0.35367,-0.57224 -0.21946,-0.706448 0.35278,-0.352784 0.9222,0.569952 1.23814,1.276392 0.57082,1.276392 -0.19403,0 -0.60965,-0.415624 -0.9236,-0.923608 z m 43.73955,-30.743056 c 0.0384,-0.931955 0.22795,-1.12152 0.48333,-0.483334 0.23109,0.5775 0.20268,1.2675 -0.0631,1.533334 -0.26583,0.265833 -0.45491,-0.206667 -0.42018,-1.05 z m -66.46316,-2.733334 c 0,-0.586666 0.24,-0.826666 0.53333,-0.533333 0.29333,0.293333 0.29333,0.773333 0,1.066667 -0.29333,0.293333 -0.53333,0.05333 -0.53333,-0.533334 z m -21.06667,-0.533333 c -0.29333,-0.293333 -0.53333,-14.405332 -0.53333,-31.359998 0,-19.83325 0.27566,-30.5509972 0.773,-30.0536655 0.73552,0.7355258 1.33673,60.9039245 0.61576,61.6248965 -0.17716,0.177155 -0.5621,0.0821 -0.85543,-0.211233 z M 18.400001,54.799996 c 0,-0.22 0.18,-0.4 0.4,-0.4 0.22,0 0.4,0.18 0.4,0.4 0,0.22 -0.18,0.4 -0.4,0.4 -0.22,0 -0.4,-0.18 -0.4,-0.4 z M 248.34092,37.999997 c 6e-4,-9.679999 0.11612,-13.530046 0.25671,-8.55566 0.14059,4.974386 0.14009,12.894386 -8e-4,17.599999 -0.14149,4.705613 -0.25652,0.635661 -0.25591,-9.044339 z m -161.140917,10.4 c 0.805944,-0.9711 3.33352,-1.2 13.250747,-1.2 6.74015,0 12.4224,0.27 12.62721,0.6 0.20482,0.33 -5.0393,0.483363 -11.65359,0.340807 -7.840487,-0.168983 -12.325015,0.03984 -12.885175,0.6 -1.315168,1.315168 -2.469688,1.021357 -1.339192,-0.340807 z m 128.800007,-8.8 c 0,-0.22 0.18,-0.4 0.4,-0.4 0.22,0 0.4,0.18 0.4,0.4 0,0.22 -0.18,0.4 -0.4,0.4 -0.22,0 -0.4,-0.18 -0.4,-0.4 z M 70.400002,35.199998 c 0,-0.44 0.381247,-0.8 0.847214,-0.8 0.465967,0 0.624722,0.36 0.352787,0.8 -0.271936,0.439999 -0.653181,0.799999 -0.847214,0.799999 -0.194033,0 -0.352787,-0.36 -0.352787,-0.799999 z m 45.999998,-0.8 c -0.27193,-0.44 -0.13442,-0.8 0.30558,-0.8 0.44,0 1.02249,0.36 1.29442,0.8 0.27194,0.44 0.13443,0.8 -0.30557,0.8 -0.44,0 -1.02249,-0.36 -1.29443,-0.8 z M 46.182158,14.622613 c 1.420186,-0.176729 3.940186,-0.179633 5.600001,-0.0065 1.659813,0.173208 0.497843,0.317804 -2.582157,0.321354 -3.08,0.0035 -4.43803,-0.138144 -3.017844,-0.314874 z m 184.217352,-0.02261 c -2.7e-4,-0.33 1.88973,-0.49714 4.2,-0.371422 7.56384,0.4116 8.3108,0.729558 2.0005,0.851556 -3.41,0.06593 -6.20023,-0.150134 -6.2005,-0.480134 z m -207.999509,-1 c 0,-0.586666 0.24,-0.826666 0.533333,-0.533334 0.293333,0.293334 0.293333,0.773334 0,1.066668 -0.293333,0.293332 -0.533333,0.05333 -0.533333,-0.533334 z M 252.26667,2.6666665 c 0.29334,-0.2933333 0.77334,-0.2933333 1.06667,0 0.29333,0.2933333 0.0533,0.5333333 -0.53333,0.5333333 -0.58667,0 -0.82667,-0.24 -0.53334,-0.5333333 z"
         id="path645" />
    </g>
  </g>
</svg>
