<?xml version="1.0" standalone="no"?>
<!DOCTYPE svg PUBLIC "-//W3C//DTD SVG 20010904//EN"
 "http://www.w3.org/TR/2001/REC-SVG-20010904/DTD/svg10.dtd">
<svg version="1.0" xmlns="http://www.w3.org/2000/svg"
 width="541.000000pt" height="541.000000pt" viewBox="0 0 541.000000 541.000000"
 preserveAspectRatio="xMidYMid meet">
<metadata>
Created by potrace 1.14, written by Peter Selinger 2001-2017
</metadata>
<g transform="translate(0.000000,541.000000) scale(0.100000,-0.100000)"
fill="#000000" stroke="none">
<path d="M375 4158 c-117 -131 -133 -220 -137 -760 l-2 -277 -118 -130 -118
-130 0 -124 0 -125 36 -44 c20 -23 60 -70 89 -103 29 -33 66 -75 82 -93 l29
-34 2 -291 c1 -161 4 -323 7 -362 20 -225 97 -365 239 -437 l61 -31 238 -5
238 -5 -2 174 c-3 228 -5 245 -32 246 -12 0 -75 3 -141 7 -192 9 -186 -7 -189
501 -3 436 12 373 -116 513 -39 42 -71 81 -72 86 -2 8 41 58 149 174 17 19 33
38 33 41 1 3 3 112 4 241 7 599 7 599 49 639 20 19 36 21 169 24 l147 2 0 178
0 177 -299 0 -299 0 -47 -52z"/>
<path d="M2910 3000 l0 -1210 215 0 215 0 1 93 c0 50 3 159 5 241 l5 149 61
74 c33 40 66 73 72 73 6 -1 30 -31 52 -68 23 -37 77 -125 121 -197 44 -71 111
-180 149 -242 52 -85 74 -114 94 -118 14 -3 107 -4 208 -3 207 3 202 1 202 84
0 69 -10 90 -146 310 -377 608 -382 618 -370 629 7 5 44 48 82 95 38 47 73 90
79 96 15 16 88 102 129 154 20 25 45 54 55 65 41 46 124 160 132 182 11 29 12
84 1 100 -17 26 -69 33 -250 33 l-187 -1 -130 -157 c-71 -86 -177 -215 -234
-287 -57 -71 -108 -131 -112 -133 -5 -2 -9 113 -10 255 -1 263 -7 930 -8 971
l-1 22 -215 0 -215 0 0 -1210z"/>
<path d="M4408 4203 c-4 -7 -3 -160 1 -303 l1 -45 138 -3 c158 -3 181 -12 195
-78 4 -21 9 -208 11 -414 3 -206 5 -380 5 -386 1 -12 5 -16 111 -133 41 -46
79 -89 83 -97 7 -13 -65 -101 -175 -216 -22 -22 -20 16 -23 -353 -3 -427 -5
-465 -24 -498 -20 -36 -34 -39 -188 -41 l-128 -3 -5 -69 c-5 -62 -5 -146 -1
-302 l1 -54 228 4 c248 5 250 5 357 73 62 40 96 79 141 163 l31 60 3 233 c1
129 4 299 6 379 1 80 3 163 4 185 0 35 8 48 58 100 31 34 83 89 115 124 l57
64 0 142 0 143 -52 59 c-52 57 -139 151 -167 180 -16 16 -19 106 -21 583 -1
195 -4 244 -19 286 -24 73 -80 162 -120 193 l-34 26 -293 3 c-161 1 -294 -1
-296 -5z"/>
<path d="M1224 2666 l0 -876 215 2 216 3 2 360 c1 198 2 499 3 668 l0 308 223
-1 c123 -1 227 -4 233 -8 26 -18 45 -67 49 -129 8 -102 13 -405 14 -826 l1
-377 207 2 208 3 -1 515 c-1 685 -5 834 -22 900 -22 86 -72 179 -127 235 -84
86 -81 86 -695 92 l-526 6 0 -877z"/>
</g>
</svg>
